<svg id="Decor_lines" xmlns="http://www.w3.org/2000/svg" xmlns:xlink="http://www.w3.org/1999/xlink" width="1920" height="390.434" viewBox="0 0 1920 390.434">
  <defs>
    <clipPath id="clip-path">
      <rect id="Rectangle_381" data-name="Rectangle 381" width="1920" height="390.434" fill="#a0ffef"/>
    </clipPath>
  </defs>
  <g id="Group_1033" data-name="Group 1033" clip-path="url(#clip-path)">
    <path id="Path_1482" data-name="Path 1482" d="M1919.893,384.177v-.053a24.987,24.987,0,0,1-11.9-3.307c-9.246-5.027-16.7-14.22-22.421-17.126a7.83,7.83,0,0,0-2.886-.931,7.287,7.287,0,0,0,2.562-.734h-.233c8.041-3.663,19.6-20.7,34.875-20.7v-5.153c-17.115,0-29.565-21.4-37.628-21.4,8.063,0,20.514-21.4,37.628-21.4v-4.958c-17.115,0-29.565-21.4-37.628-21.4,8.063,0,20.514-21.4,37.628-21.4v-5.154c-17.115,0-29.565-21.4-37.628-21.4,8.063,0,20.514-21.4,37.628-21.4v-4.958c-17.115,0-29.565-21.4-37.628-21.4,8.063,0,20.514-21.4,37.628-21.4v-5.153c-17.115,0-29.565-21.4-37.628-21.4,8.063,0,20.514-21.4,37.628-21.4V97c-17.115,0-29.565-21.4-37.628-21.4,8.063,0,20.514-21.4,37.628-21.4V49.051c-17.115,0-29.565-21.4-37.628-21.4,8.063,0,20.514-21.4,37.628-21.4V.633c-1.93-1.93-8.557,1.07-10.912,2.139-7.341,3.335-20.668,21.4-37.628,21.4s-30.164-18.346-37.627-21.4A36.063,36.063,0,0,0,1823.345.633a38.786,38.786,0,0,0-10.266,2.139c-7.61,2.663-20.668,21.4-37.627,21.4s-30.039-18.676-37.628-21.4A38.733,38.733,0,0,0,1727.443.633a36.039,36.039,0,0,0-10.266,2.139c-7.492,2.98-20.668,21.4-37.627,21.4s-30.329-17.973-37.628-21.4a25.974,25.974,0,0,0-20.646,0c-7.324,3.373-20.669,21.4-37.628,21.4S1553.5,5.793,1546.02,2.773A35.12,35.12,0,0,0,1535.886.633a36.948,36.948,0,0,0-10.912,2.139c-7.341,3.335-20.668,21.4-37.628,21.4s-30.164-18.346-37.627-21.4A36.063,36.063,0,0,0,1439.338.633a38.786,38.786,0,0,0-10.266,2.139c-7.61,2.663-20.668,21.4-37.627,21.4s-30.039-18.676-37.628-21.4A38.733,38.733,0,0,0,1343.436.633a36.039,36.039,0,0,0-10.266,2.139c-7.492,2.98-20.668,21.4-37.627,21.4s-30.329-17.973-37.628-21.4a25.974,25.974,0,0,0-20.645,0c-7.324,3.373-20.669,21.4-37.628,21.4s-30.152-18.378-37.627-21.4A35.118,35.118,0,0,0,1151.88.633a36.949,36.949,0,0,0-10.912,2.139c-7.341,3.335-20.668,21.4-37.628,21.4s-30.164-18.346-37.627-21.4A45.6,45.6,0,0,0,1055.332.633c-2.619-.227-7.856,1.463-10.266,2.139-7.764,2.178-20.668,21.4-37.627,21.4S977.4,5.495,969.81,2.773A38.731,38.731,0,0,0,959.429.633a36.039,36.039,0,0,0-10.265,2.139c-7.492,2.98-20.668,21.4-37.627,21.4S881.208,6.2,873.908,2.773a25.974,25.974,0,0,0-20.645,0c-7.324,3.373-20.669,21.4-37.628,21.4s-30.153-18.378-37.627-21.4A35.12,35.12,0,0,0,767.873.633a36.947,36.947,0,0,0-10.912,2.139c-7.341,3.335-20.668,21.4-37.628,21.4s-30.164-18.346-37.627-21.4A36.064,36.064,0,0,0,671.325.633a38.786,38.786,0,0,0-10.266,2.139c-7.611,2.663-20.668,21.4-37.627,21.4S593.394,5.495,585.8,2.773A38.732,38.732,0,0,0,575.423.633a36.039,36.039,0,0,0-10.266,2.139c-7.492,2.98-20.668,21.4-37.627,21.4S497.2,6.2,489.9,2.773a25.974,25.974,0,0,0-20.645,0c-7.324,3.373-20.669,21.4-37.628,21.4S401.476,5.793,394,2.773A34.8,34.8,0,0,0,383.866.633a39.194,39.194,0,0,0-10.649,2.212c-7.583,2.743-20.668,21.4-37.628,21.4s-30.134-18.421-37.627-21.4A35.413,35.413,0,0,0,287.58.706a34.366,34.366,0,0,0-10.265,2.139c-7.463,3.054-20.668,21.4-37.627,21.4S209.2,6.6,202.059,2.845C199.886,1.7,194.273.706,191.678.706a32.182,32.182,0,0,0-10.265,2.139c-7.294,3.436-20.668,21.4-37.627,21.4s-30.274-18.091-37.628-21.4A32.974,32.974,0,0,0,95.776.706,36.333,36.333,0,0,0,85.51,2.845c-7.573,2.767-20.668,21.4-37.627,21.4S17.759,5.8,10.256,2.845A30.094,30.094,0,0,0,.121.706c-.272.007,0,5.621,0,5.621,16.045,0,29.565,21.4,37.628,21.4-8.063,0-21.584,21.4-37.628,21.4v5.153c16.045,0,29.565,21.4,37.628,21.4-8.063,0-21.584,21.4-37.628,21.4v4.958c16.045,0,29.565,21.4,37.628,21.4-8.063,0-21.584,21.4-37.628,21.4v5.153c16.045,0,29.565,21.4,37.628,21.4-8.063,0-21.584,21.4-37.628,21.4v4.958c16.045,0,29.565,21.4,37.628,21.4-8.063,0-21.175,21.4-37.628,21.4v5.154c16.453,0,29.565,21.4,37.628,21.4-8.063,0-21.175,21.4-37.628,21.4v4.958c16.453,0,29.565,21.4,37.628,21.4-8.063,0-21.175,21.4-37.628,21.4V341.4c16.113,0,29.018,20.51,37.118,21.359-8.126,1.018-21.366,21.349-37.01,21.349,0,0,0,.034,0,.086-.034,0-.068,0-.1,0v2.655H.129a10.73,10.73,0,0,0,.1,2.876,30.041,30.041,0,0,0,10.135-2.139,13.534,13.534,0,0,0,2.462-1.35c4.889-2.108,11.122-9.278,18.666-14.615,4.97-3.118,10.5-5.435,16.5-5.435,5.523,0,10.631,1.981,15.277,4.741,8.178,5.51,14.862,13.457,20.014,15.449a12.36,12.36,0,0,0,2.336,1.21,36.293,36.293,0,0,0,10.265,2.139,32.914,32.914,0,0,0,10.381-2.139,14.423,14.423,0,0,0,2.067-1.191c5.2-1.974,11.974-10.073,20.273-15.605,4.659-2.69,9.781-4.6,15.289-4.6a29.44,29.44,0,0,1,13.419,3.548c9.37,5.684,16.887,15.2,22.495,16.86a14.133,14.133,0,0,0,1.714.992,32.152,32.152,0,0,0,10.265,2.139c2.6,0,8.207-1,10.381-2.139a16.189,16.189,0,0,0,1.7-1.062c5.493-1.8,12.786-10.858,21.831-16.5a30.356,30.356,0,0,1,14.1-3.837,29.694,29.694,0,0,1,14.465,4.2c8.7,5.615,15.756,14.237,21.115,16.092a12.983,12.983,0,0,0,2.047,1.108,34.325,34.325,0,0,0,10.266,2.139,35.377,35.377,0,0,0,10.381-2.139,13.556,13.556,0,0,0,2.424-1.332c4.918-2.1,11.2-9.351,18.812-14.71,4.942-3.08,10.432-5.358,16.391-5.358,5.559,0,10.7,2.01,15.368,4.8,8.124,5.5,14.77,13.38,19.9,15.379a12.334,12.334,0,0,0,2.361,1.218,39.2,39.2,0,0,0,10.649,2.213,34.837,34.837,0,0,0,10.134-2.139,15.466,15.466,0,0,0,3.015-1.751c4.464-2.216,10-8.28,16.594-13.251,5.356-3.594,11.4-6.4,18.018-6.4a30.6,30.6,0,0,1,15.121,4.489c8.3,5.548,15.075,13.653,20.273,15.589a15.212,15.212,0,0,0,2.235,1.321,25.974,25.974,0,0,0,20.645,0,16.3,16.3,0,0,0,2.442-1.488c4.89-2.1,11.127-9.273,18.676-14.617,4.984-3.05,10.522-5.295,16.51-5.295,5.923,0,11.382,2.25,16.3,5.3,7.557,5.35,13.8,12.538,18.69,14.621a14.164,14.164,0,0,0,2.636,1.478,36.039,36.039,0,0,0,10.266,2.139,38.732,38.732,0,0,0,10.381-2.139,15.526,15.526,0,0,0,3.63-2.082c4.019-2.252,8.871-7.309,14.54-11.808,5.7-4.109,12.223-7.51,19.458-7.51,6.418,0,12.276,2.685,17.493,6.166,6.771,5.044,12.442,11.309,16.992,13.523a13.856,13.856,0,0,0,3.143,1.711,38.776,38.776,0,0,0,10.266,2.139,36.071,36.071,0,0,0,10.381-2.139,15.457,15.457,0,0,0,2.965-1.729c4.5-2.21,10.105-8.367,16.78-13.375,5.323-3.545,11.32-6.3,17.883-6.3a30.643,30.643,0,0,1,15.235,4.565c8.234,5.535,14.956,13.553,20.127,15.5a15.008,15.008,0,0,0,2.267,1.333A36.94,36.94,0,0,0,767.98,389.8a35.125,35.125,0,0,0,10.135-2.139,15.464,15.464,0,0,0,3.014-1.751c4.465-2.216,10-8.28,16.595-13.251,5.356-3.593,11.4-6.4,18.018-6.4a30.6,30.6,0,0,1,15.122,4.489c8.3,5.549,15.074,13.652,20.272,15.589a15.21,15.21,0,0,0,2.234,1.321,25.974,25.974,0,0,0,20.645,0,16.3,16.3,0,0,0,2.442-1.488c4.891-2.1,11.127-9.273,18.676-14.617,4.984-3.05,10.522-5.295,16.51-5.295,5.923,0,11.382,2.248,16.3,5.3,7.558,5.352,13.8,12.54,18.69,14.622a14.17,14.17,0,0,0,2.637,1.478,36.031,36.031,0,0,0,10.266,2.139,38.74,38.74,0,0,0,10.381-2.139,15.487,15.487,0,0,0,3.63-2.082c4.019-2.251,8.871-7.309,14.541-11.808,5.7-4.109,12.222-7.51,19.457-7.51,7.521,0,14.241,3.781,20.073,8.178,5.122,4.167,9.559,8.671,13.294,10.907a14.44,14.44,0,0,0,4.26,2.315c2.41.676,7.647,2.365,10.266,2.139a45.665,45.665,0,0,0,10.381-2.139,15.452,15.452,0,0,0,2.965-1.729c4.5-2.21,10.105-8.367,16.78-13.375,5.323-3.545,11.32-6.3,17.882-6.3a30.643,30.643,0,0,1,15.235,4.565c8.234,5.535,14.956,13.553,20.127,15.5a15,15,0,0,0,2.267,1.333,36.94,36.94,0,0,0,10.911,2.139,35.113,35.113,0,0,0,10.134-2.139,15.432,15.432,0,0,0,3.015-1.751c4.465-2.216,10-8.28,16.594-13.251,5.357-3.593,11.4-6.4,18.019-6.4a30.6,30.6,0,0,1,15.122,4.489c8.3,5.549,15.073,13.652,20.272,15.589a15.264,15.264,0,0,0,2.233,1.321,25.977,25.977,0,0,0,20.647,0,16.31,16.31,0,0,0,2.442-1.488c4.89-2.1,11.126-9.273,18.676-14.617,4.983-3.05,10.522-5.295,16.51-5.295,5.923,0,11.382,2.248,16.3,5.3,7.558,5.352,13.8,12.54,18.69,14.622a14.169,14.169,0,0,0,2.637,1.478,36.032,36.032,0,0,0,10.266,2.139,38.74,38.74,0,0,0,10.381-2.139,15.484,15.484,0,0,0,3.629-2.082c4.02-2.251,8.872-7.309,14.541-11.808,5.7-4.109,12.223-7.51,19.458-7.51,6.419,0,12.277,2.686,17.5,6.167,6.769,5.044,12.44,11.308,16.988,13.522a13.89,13.89,0,0,0,3.144,1.711,38.777,38.777,0,0,0,10.266,2.139,36.07,36.07,0,0,0,10.381-2.139,15.523,15.523,0,0,0,2.965-1.729c4.5-2.21,10.1-8.367,16.78-13.376,5.322-3.545,11.32-6.295,17.882-6.295a30.643,30.643,0,0,1,15.235,4.565c8.234,5.535,14.956,13.553,20.127,15.5a15.008,15.008,0,0,0,2.266,1.333,36.939,36.939,0,0,0,10.911,2.139,35.112,35.112,0,0,0,10.134-2.139,15.432,15.432,0,0,0,3.015-1.751c4.465-2.216,10-8.28,16.594-13.251,5.357-3.593,11.4-6.4,18.019-6.4a30.6,30.6,0,0,1,15.122,4.489c8.3,5.549,15.074,13.652,20.272,15.589a15.264,15.264,0,0,0,2.233,1.321,25.976,25.976,0,0,0,20.646,0,16.3,16.3,0,0,0,2.442-1.488c4.89-2.1,11.126-9.274,18.676-14.617,4.985-3.05,10.522-5.295,16.51-5.295,5.923,0,11.382,2.248,16.3,5.3,7.558,5.35,13.8,12.538,18.69,14.621a14.174,14.174,0,0,0,2.637,1.478,36.032,36.032,0,0,0,10.266,2.139,38.738,38.738,0,0,0,10.381-2.139,15.487,15.487,0,0,0,3.629-2.082c4.02-2.251,8.872-7.309,14.542-11.808,5.7-4.11,12.222-7.51,19.457-7.51,6.418,0,12.276,2.685,17.493,6.166,6.771,5.044,12.442,11.309,16.99,13.523a13.887,13.887,0,0,0,3.144,1.711,38.777,38.777,0,0,0,10.266,2.139,36.069,36.069,0,0,0,10.381-2.139,15.515,15.515,0,0,0,2.965-1.729c4.5-2.21,10.105-8.367,16.78-13.376,5.323-3.545,11.32-6.295,17.882-6.295a30.643,30.643,0,0,1,15.235,4.565c8.234,5.535,14.956,13.553,20.127,15.5a15,15,0,0,0,2.267,1.333c2.353,1.07,8.982,4.068,10.911,2.139v-5.621c-.036,0-.072,0-.107,0m-61.473-22.055c.08.034.16.071.24.1a6.93,6.93,0,0,0,1.992.527c-8.078.543-20.718,21.373-37.306,21.373a24.69,24.69,0,0,1-11.762-3.3c-9.211-5.026-16.776-14.219-22.539-17.128a7.944,7.944,0,0,0-2.9-.932,7.359,7.359,0,0,0,2.572-.734h-.234c8.091-3.663,19.863-20.7,34.866-20.7s26.775,17.037,34.864,20.7h-.017c.077.035.152.062.228.1m-95.9,0c.08.034.161.071.24.1a6.94,6.94,0,0,0,1.992.527c-8.078.543-20.718,21.373-37.306,21.373a24.68,24.68,0,0,1-11.762-3.305c-9.211-5.025-16.775-14.217-22.538-17.126a7.937,7.937,0,0,0-2.9-.933,7.355,7.355,0,0,0,2.571-.734h-.233c8.09-3.663,19.862-20.7,34.864-20.7s26.775,17.037,34.865,20.7h-.018c.077.035.152.062.228.1m-95.9,0c.08.034.161.071.241.1a6.92,6.92,0,0,0,1.992.527c-8.079.543-20.718,21.373-37.307,21.373a24.686,24.686,0,0,1-11.761-3.3c-9.211-5.026-16.776-14.219-22.539-17.128a7.956,7.956,0,0,0-2.9-.932,7.358,7.358,0,0,0,2.57-.734h-.233c8.091-3.663,19.863-20.7,34.864-20.7s26.775,17.037,34.865,20.7h-.018c.077.035.152.062.228.1m-95.521.064c.01.005.021.01.031.014a7.217,7.217,0,0,0,2.067.551c-8.088.543-21.067,21.373-37.305,21.373a24.987,24.987,0,0,1-11.9-3.307c-9.246-5.027-16.7-14.22-22.421-17.126a7.831,7.831,0,0,0-2.886-.931,7.286,7.286,0,0,0,2.562-.734h-.233c8.041-3.663,19.6-20.7,34.875-20.7,14.685,0,26.706,17.037,34.854,20.7h-.033c.131.06.258.107.387.16m-96.681-.064c.08.034.16.071.24.1a6.93,6.93,0,0,0,1.992.527c-8.078.543-20.718,21.373-37.306,21.373a24.689,24.689,0,0,1-11.762-3.3c-9.211-5.026-16.776-14.219-22.539-17.128a7.944,7.944,0,0,0-2.9-.932,7.359,7.359,0,0,0,2.572-.734h-.234c8.091-3.663,19.863-20.7,34.866-20.7s26.775,17.037,34.864,20.7h-.017c.077.035.152.062.228.1m-95.9,0c.08.034.161.071.24.1a6.94,6.94,0,0,0,1.992.527c-8.078.543-20.718,21.373-37.306,21.373a24.682,24.682,0,0,1-11.761-3.3c-9.212-5.026-16.777-14.219-22.539-17.128a7.956,7.956,0,0,0-2.9-.932,7.357,7.357,0,0,0,2.571-.734h-.233c8.09-3.663,19.862-20.7,34.864-20.7s26.775,17.037,34.865,20.7h-.018c.077.035.152.062.228.1m-95.9,0c.08.034.16.071.241.1a6.918,6.918,0,0,0,1.992.527c-8.079.543-20.718,21.373-37.307,21.373a24.68,24.68,0,0,1-11.76-3.3c-9.212-5.026-16.778-14.219-22.54-17.128a7.95,7.95,0,0,0-2.9-.932,7.359,7.359,0,0,0,2.57-.734h-.233c8.091-3.663,19.863-20.7,34.865-20.7s26.775,17.037,34.865,20.7h-.018c.077.035.152.062.228.1m-95.522.064.032.014a7.217,7.217,0,0,0,2.067.551c-8.088.543-21.067,21.373-37.305,21.373a24.988,24.988,0,0,1-11.9-3.307c-9.246-5.027-16.7-14.22-22.42-17.126a7.843,7.843,0,0,0-2.887-.931,7.286,7.286,0,0,0,2.562-.734H1117c8.042-3.663,19.6-20.7,34.875-20.7,14.685,0,26.706,17.037,34.854,20.7h-.033c.132.06.258.107.386.16m-96.681-.064c.08.034.161.071.24.1a6.94,6.94,0,0,0,1.992.527c-8.078.543-20.718,21.373-37.306,21.373a24.69,24.69,0,0,1-11.762-3.3c-9.211-5.026-16.775-14.219-22.539-17.128a7.944,7.944,0,0,0-2.9-.932,7.357,7.357,0,0,0,2.571-.734h-.234c8.091-3.663,19.862-20.7,34.865-20.7s26.775,17.037,34.864,20.7h-.017c.077.035.151.062.227.1m-95.9,0c.08.034.16.071.24.1a6.936,6.936,0,0,0,1.993.527c-8.079.543-20.719,21.373-37.307,21.373a24.682,24.682,0,0,1-11.761-3.3c-9.211-5.026-16.776-14.219-22.539-17.128a7.955,7.955,0,0,0-2.9-.932,7.357,7.357,0,0,0,2.571-.734h-.233c8.09-3.663,19.862-20.7,34.864-20.7s26.775,17.037,34.865,20.7h-.018c.077.035.152.062.228.1m-95.9,0c.08.034.161.071.241.1a6.922,6.922,0,0,0,1.992.527c-8.079.543-20.718,21.373-37.307,21.373a24.681,24.681,0,0,1-11.76-3.3c-9.212-5.026-16.778-14.219-22.54-17.128a7.95,7.95,0,0,0-2.9-.932,7.359,7.359,0,0,0,2.57-.734h-.233c8.091-3.663,19.862-20.7,34.864-20.7s26.775,17.037,34.865,20.7h-.018c.077.035.152.062.228.1m-95.522.064.032.014a7.215,7.215,0,0,0,2.067.551c-8.088.543-21.067,21.373-37.305,21.373a24.987,24.987,0,0,1-11.9-3.307c-9.246-5.027-16.7-14.22-22.42-17.126a7.843,7.843,0,0,0-2.887-.931,7.286,7.286,0,0,0,2.562-.734H733c8.042-3.663,19.6-20.7,34.875-20.7,14.685,0,26.706,17.037,34.854,20.7h-.032c.13.06.257.107.385.16m-96.681-.064c.08.034.162.071.241.1a6.939,6.939,0,0,0,1.992.527c-8.078.543-20.718,21.373-37.306,21.373a24.679,24.679,0,0,1-11.762-3.305c-9.211-5.025-16.775-14.217-22.538-17.126a7.938,7.938,0,0,0-2.9-.933,7.357,7.357,0,0,0,2.571-.734h-.234c8.091-3.663,19.862-20.7,34.865-20.7s26.775,17.037,34.864,20.7h-.017c.077.035.151.062.227.1m-95.9,0c.08.034.161.071.24.1a6.936,6.936,0,0,0,1.993.527c-8.079.543-20.719,21.373-37.307,21.373a24.686,24.686,0,0,1-11.761-3.3c-9.211-5.025-16.775-14.218-22.539-17.127a7.932,7.932,0,0,0-2.9-.933,7.357,7.357,0,0,0,2.571-.734h-.233c8.09-3.663,19.862-20.7,34.864-20.7s26.775,17.037,34.865,20.7h-.018c.077.035.152.062.228.1m-95.9,0c.08.034.161.071.241.1a6.921,6.921,0,0,0,1.992.527c-8.079.543-20.718,21.373-37.307,21.373a24.681,24.681,0,0,1-11.76-3.3c-9.211-5.025-16.776-14.218-22.539-17.127a7.943,7.943,0,0,0-2.9-.933,7.357,7.357,0,0,0,2.571-.734h-.233c8.091-3.663,19.862-20.7,34.864-20.7s26.775,17.037,34.865,20.7h-.018c.077.035.152.062.228.1m-95.511.069.035.014a7.157,7.157,0,0,0,2.052.546c-4.75.32-11.186,7.628-18.982,13.617q-1.073.821-2.179,1.6c-.128.091-.255.184-.384.273s-.271.183-.406.275c-4.594,3.126-9.609,5.486-14.985,5.592v0c-16.76,0-29.045-20.51-37.119-21.358,8.076-1.019,20.326-21.35,37.011-21.35v-.063c14.567.2,26.492,17.049,34.592,20.689h-.031c.134.062.264.11.4.166m-102.7,5.5c-2.395,2.009-5.007,4.409-7.829,6.751-6.025,4.986-13,9.67-20.866,9.67-16.461,0-29.034-20.51-37.119-21.358,8.09-1.019,20.624-21.35,37.011-21.35,16.46,0,29.033,20.511,37.118,21.359-2.39.3-5.164,2.278-8.315,4.929m-95.9,0c-2.4,2.01-5.009,4.41-7.832,6.752-6.024,4.986-13,9.669-20.864,9.669-16.46,0-29.033-20.51-37.119-21.358,8.09-1.019,20.624-21.35,37.011-21.35,16.46,0,29.033,20.511,37.119,21.359-2.39.3-5.165,2.278-8.316,4.929m-95.9,0c-2.4,2.01-5.009,4.41-7.832,6.752-6.024,4.986-13,9.669-20.864,9.669-16.46,0-29.033-20.51-37.119-21.358,8.091-1.019,20.625-21.35,37.011-21.35,16.461,0,29.033,20.511,37.119,21.359-2.39.3-5.165,2.278-8.316,4.929M249.952,219.14c8.063,0,20.821-21.4,37.628-21.4s29.564,21.4,37.627,21.4c-8.063,0-20.82,21.4-37.627,21.4s-29.565-21.4-37.628-21.4m27.363,23.975c-8.063,0-20.668,21.4-37.627,21.4s-29.565-21.4-37.628-21.4c8.063,0,20.668-21.4,37.628-21.4s29.564,21.4,37.627,21.4m58.274-21.4c16.96,0,29.565,21.4,37.628,21.4-8.063,0-20.668,21.4-37.628,21.4s-29.564-21.4-37.627-21.4c8.063,0,20.668-21.4,37.627-21.4M346.5,219.14c8.063,0,20.513-21.4,37.627-21.4v-.063c15.93.232,29.347,21.389,37.366,21.389-8.063,0-21.175,21.4-37.627,21.4v.064c-16.979-.218-29.345-21.389-37.366-21.389m85.128,2.5c16.959,0,29.565,21.4,37.628,21.4-8.063,0-20.669,21.4-37.628,21.4s-29.564-21.4-37.627-21.4c8.063,0,20.668-21.4,37.627-21.4m10.265-2.577c8.063,0,20.82-21.4,37.627-21.4s29.565,21.4,37.628,21.4c-8.063,0-20.821,21.4-37.628,21.4s-29.564-21.4-37.627-21.4m85.637,2.577c16.959,0,29.564,21.4,37.627,21.4-8.063,0-20.668,21.4-37.627,21.4s-29.564-21.4-37.628-21.4c8.064,0,20.669-21.4,37.628-21.4m10.266-2.577c8.063,0,20.82-21.4,37.627-21.4s29.565,21.4,37.628,21.4c-8.063,0-20.821,21.4-37.628,21.4s-29.564-21.4-37.627-21.4m85.637,2.577c16.959,0,29.564,21.4,37.627,21.4-8.063,0-20.668,21.4-37.627,21.4s-29.565-21.4-37.628-21.4c8.063,0,20.668-21.4,37.628-21.4m10.264-2.577c8.063,0,20.821-21.4,37.628-21.4s29.564,21.4,37.627,21.4c-8.063,0-20.82,21.4-37.627,21.4s-29.565-21.4-37.628-21.4m85.637,2.577c16.961,0,29.565,21.4,37.628,21.4-8.063,0-20.668,21.4-37.628,21.4s-29.564-21.4-37.627-21.4c8.063,0,20.668-21.4,37.627-21.4m10.912-2.577c8.063,0,20.514-21.4,37.628-21.4,16.045,0,29.564,21.4,37.627,21.4-8.063,0-21.175,21.4-37.627,21.4-17.115,0-29.565-21.4-37.628-21.4m85.39,2.577c16.959,0,29.565,21.4,37.628,21.4-8.063,0-20.669,21.4-37.628,21.4s-29.564-21.4-37.627-21.4c8.063,0,20.668-21.4,37.627-21.4m10.265-2.577c8.063,0,20.82-21.4,37.627-21.4s29.565,21.4,37.628,21.4c-8.063,0-20.821,21.4-37.628,21.4s-29.564-21.4-37.627-21.4m85.637,2.577c16.959,0,29.564,21.4,37.627,21.4-8.063,0-20.668,21.4-37.627,21.4s-29.564-21.4-37.628-21.4c8.064,0,20.669-21.4,37.628-21.4m10.265-2.577c8.063,0,20.82-21.4,37.627-21.4s29.565,21.4,37.628,21.4c-8.063,0-20.821,21.4-37.628,21.4s-29.564-21.4-37.627-21.4m85.637,2.577c16.959,0,29.564,21.4,37.627,21.4-8.063,0-20.668,21.4-37.627,21.4s-29.565-21.4-37.628-21.4c8.063,0,20.668-21.4,37.628-21.4m10.264-2.577c8.063,0,20.821-21.4,37.628-21.4s29.564,21.4,37.627,21.4c-8.063,0-20.82,21.4-37.627,21.4s-29.565-21.4-37.628-21.4m85.637,2.577c16.96,0,29.565,21.4,37.628,21.4-8.063,0-20.668,21.4-37.628,21.4s-29.564-21.4-37.627-21.4c8.063,0,20.668-21.4,37.627-21.4m10.912-2.577c8.063,0,20.514-21.4,37.628-21.4,16.045,0,29.564,21.4,37.627,21.4-8.063,0-21.175,21.4-37.627,21.4-17.114,0-29.565-21.4-37.628-21.4m85.39,2.577c16.959,0,29.565,21.4,37.628,21.4-8.063,0-20.669,21.4-37.628,21.4s-29.564-21.4-37.627-21.4c8.063,0,20.668-21.4,37.627-21.4m10.266-2.577c8.063,0,20.82-21.4,37.627-21.4s29.565,21.4,37.628,21.4c-8.063,0-20.821,21.4-37.628,21.4s-29.564-21.4-37.627-21.4m85.637,2.577c16.959,0,29.564,21.4,37.627,21.4-8.063,0-20.668,21.4-37.627,21.4s-29.565-21.4-37.628-21.4c8.063,0,20.669-21.4,37.628-21.4m10.266-2.577c8.063,0,20.82-21.4,37.627-21.4s29.565,21.4,37.628,21.4c-8.063,0-20.821,21.4-37.628,21.4s-29.564-21.4-37.627-21.4m85.637,2.577c16.959,0,29.564,21.4,37.627,21.4-8.063,0-20.668,21.4-37.627,21.4s-29.565-21.4-37.628-21.4c8.063,0,20.668-21.4,37.628-21.4m10.265-2.577c8.063,0,20.821-21.4,37.628-21.4s29.564,21.4,37.627,21.4c-8.063,0-20.82,21.4-37.627,21.4s-29.565-21.4-37.628-21.4m85.637,2.577c16.96,0,29.565,21.4,37.628,21.4-8.063,0-20.668,21.4-37.628,21.4s-29.564-21.4-37.627-21.4c8.063,0,20.668-21.4,37.627-21.4m10.912-2.577c8.063,0,20.514-21.4,37.628-21.4,16.045,0,29.564,21.4,37.627,21.4-8.063,0-21.175,21.4-37.627,21.4-17.115,0-29.565-21.4-37.628-21.4m85.39,2.577c16.959,0,29.565,21.4,37.628,21.4-8.063,0-20.669,21.4-37.628,21.4s-29.564-21.4-37.627-21.4c8.063,0,20.668-21.4,37.627-21.4m10.265-2.577c8.063,0,20.82-21.4,37.627-21.4s29.565,21.4,37.628,21.4c-8.063,0-20.821,21.4-37.628,21.4s-29.564-21.4-37.627-21.4m85.637,2.577c16.959,0,29.564,21.4,37.627,21.4-8.063,0-20.668,21.4-37.627,21.4s-29.565-21.4-37.628-21.4c8.063,0,20.669-21.4,37.628-21.4m10.266-2.577c8.062,0,20.82-21.4,37.627-21.4s29.565,21.4,37.628,21.4c-8.063,0-20.821,21.4-37.628,21.4s-29.565-21.4-37.627-21.4m0-47.756c8.062,0,20.82-21.4,37.627-21.4s29.565,21.4,37.628,21.4c-8.063,0-20.821,21.4-37.628,21.4s-29.565-21.4-37.627-21.4m27.362,23.371c-8.063,0-20.668,21.4-37.627,21.4s-29.565-21.4-37.628-21.4c8.063,0,20.669-21.4,37.628-21.4s29.564,21.4,37.627,21.4m-85.637-1.972c-16.807,0-29.564-21.4-37.627-21.4,8.063,0,20.82-21.4,37.627-21.4s29.565,21.4,37.628,21.4c-8.063,0-20.821,21.4-37.628,21.4m-10.264,1.972c-8.063,0-20.669,21.4-37.628,21.4s-29.564-21.4-37.627-21.4c8.063,0,20.668-21.4,37.627-21.4s29.565,21.4,37.628,21.4m-85.39-1.972c-17.115,0-29.565-21.4-37.628-21.4,8.063,0,20.514-21.4,37.628-21.4,16.045,0,29.564,21.4,37.627,21.4-8.063,0-21.582,21.4-37.627,21.4m-10.912,1.972c-8.063,0-20.668,21.4-37.628,21.4s-29.564-21.4-37.627-21.4c8.063,0,20.668-21.4,37.627-21.4s29.565,21.4,37.628,21.4m-85.637-1.972c-16.808,0-29.565-21.4-37.628-21.4,8.063,0,20.821-21.4,37.628-21.4s29.564,21.4,37.627,21.4c-8.063,0-20.82,21.4-37.627,21.4m-10.266,1.972c-8.063,0-20.668,21.4-37.627,21.4s-29.565-21.4-37.628-21.4c8.063,0,20.668-21.4,37.628-21.4s29.564,21.4,37.627,21.4m-85.637-1.972c-16.808,0-29.564-21.4-37.627-21.4,8.063,0,20.82-21.4,37.627-21.4s29.565,21.4,37.628,21.4c-8.063,0-20.821,21.4-37.628,21.4m-10.266,1.972c-8.063,0-20.668,21.4-37.627,21.4s-29.565-21.4-37.628-21.4c8.063,0,20.669-21.4,37.628-21.4s29.564,21.4,37.627,21.4m-85.637-1.972c-16.807,0-29.564-21.4-37.627-21.4,8.063,0,20.82-21.4,37.627-21.4s29.565,21.4,37.628,21.4c-8.063,0-20.821,21.4-37.628,21.4m-10.264,1.972c-8.063,0-20.669,21.4-37.628,21.4s-29.564-21.4-37.627-21.4c8.063,0,20.668-21.4,37.627-21.4s29.565,21.4,37.628,21.4m-85.39-1.972c-17.114,0-29.565-21.4-37.628-21.4,8.063,0,20.514-21.4,37.628-21.4,16.045,0,29.564,21.4,37.627,21.4-8.063,0-21.582,21.4-37.627,21.4m-10.912,1.972c-8.063,0-20.668,21.4-37.628,21.4s-29.564-21.4-37.627-21.4c8.063,0,20.668-21.4,37.627-21.4s29.565,21.4,37.628,21.4m-85.637-1.972c-16.807,0-29.565-21.4-37.628-21.4,8.063,0,20.821-21.4,37.628-21.4s29.564,21.4,37.627,21.4c-8.063,0-20.82,21.4-37.627,21.4m-10.266,1.972c-8.063,0-20.668,21.4-37.627,21.4s-29.565-21.4-37.628-21.4c8.063,0,20.668-21.4,37.628-21.4s29.564,21.4,37.627,21.4m-85.637-1.972c-16.807,0-29.564-21.4-37.627-21.4,8.063,0,20.82-21.4,37.627-21.4s29.565,21.4,37.628,21.4c-8.063,0-20.821,21.4-37.628,21.4m-10.265,1.972c-8.063,0-20.668,21.4-37.627,21.4s-29.564-21.4-37.628-21.4c8.064,0,20.669-21.4,37.628-21.4s29.564,21.4,37.627,21.4m-85.637-1.972c-16.807,0-29.564-21.4-37.627-21.4,8.063,0,20.82-21.4,37.627-21.4s29.565,21.4,37.628,21.4c-8.063,0-20.821,21.4-37.628,21.4m-10.264,1.972c-8.063,0-20.669,21.4-37.628,21.4s-29.564-21.4-37.627-21.4c8.063,0,20.668-21.4,37.627-21.4s29.565,21.4,37.628,21.4m-85.39-1.972c-17.115,0-29.565-21.4-37.628-21.4,8.063,0,20.514-21.4,37.628-21.4,16.045,0,29.564,21.4,37.627,21.4-8.063,0-21.582,21.4-37.627,21.4m-10.912,1.972c-8.063,0-20.668,21.4-37.628,21.4s-29.564-21.4-37.627-21.4c8.063,0,20.668-21.4,37.627-21.4s29.565,21.4,37.628,21.4m-85.637-1.972c-16.807,0-29.565-21.4-37.628-21.4,8.063,0,20.821-21.4,37.628-21.4s29.564,21.4,37.627,21.4c-8.063,0-20.82,21.4-37.627,21.4m-10.266,1.972c-8.063,0-20.668,21.4-37.627,21.4s-29.565-21.4-37.628-21.4c8.063,0,20.668-21.4,37.628-21.4s29.564,21.4,37.627,21.4m-85.637-1.972c-16.808,0-29.564-21.4-37.627-21.4,8.063,0,20.82-21.4,37.627-21.4s29.565,21.4,37.628,21.4c-8.063,0-20.821,21.4-37.628,21.4m-10.266,1.972c-8.063,0-20.668,21.4-37.627,21.4s-29.564-21.4-37.628-21.4c8.064,0,20.669-21.4,37.628-21.4s29.564,21.4,37.627,21.4m-85.637-1.972c-16.808,0-29.564-21.4-37.627-21.4,8.063,0,20.82-21.4,37.627-21.4s29.565,21.4,37.628,21.4c-8.063,0-20.821,21.4-37.628,21.4m-10.264,1.972c-8.063,0-20.669,21.4-37.628,21.4s-29.564-21.4-37.627-21.4c8.063,0,20.668-21.4,37.627-21.4s29.565,21.4,37.628,21.4m-85.39-1.972v.064c-16.979-.218-29.345-21.39-37.366-21.39,8.063,0,20.513-21.4,37.627-21.4v-.063c15.93.232,29.347,21.389,37.366,21.389-8.063,0-21.582,21.4-37.627,21.4m-10.649,2.045c-8.063,0-20.668,21.4-37.628,21.4s-29.564-21.4-37.627-21.4c8.063,0,20.668-21.4,37.627-21.4s29.565,21.4,37.628,21.4m-85.637-1.971c-16.807,0-29.565-21.4-37.628-21.4,8.063,0,20.821-21.4,37.628-21.4s29.564,21.4,37.627,21.4c-8.063,0-20.82,21.4-37.627,21.4m-10.265,1.971c-8.063,0-20.668,21.4-37.627,21.4s-29.565-21.4-37.628-21.4c8.063,0,20.668-21.4,37.628-21.4s29.564,21.4,37.627,21.4m-85.637-1.971c-16.808,0-29.565-21.4-37.628-21.4,8.063,0,20.821-21.4,37.628-21.4s29.564,21.4,37.627,21.4c-8.063,0-20.82,21.4-37.627,21.4m37.627,26.357c-8.063,0-20.82,21.4-37.627,21.4s-29.565-21.4-37.628-21.4c8.063,0,20.821-21.4,37.628-21.4s29.564,21.4,37.627,21.4m0,47.951c-8.063,0-20.82,21.4-37.627,21.4s-29.565-21.4-37.628-21.4c8.063,0,20.821-21.4,37.628-21.4s29.564,21.4,37.627,21.4m10.382,2.166c16.959,0,29.564,21.4,37.627,21.4-8.063,0-20.668,21.4-37.627,21.4s-29.565-21.4-37.628-21.4c8.063,0,20.668-21.4,37.628-21.4m10.264-2.166c8.063,0,20.821-21.4,37.628-21.4s29.564,21.4,37.627,21.4c-8.063,0-20.82,21.4-37.627,21.4s-29.565-21.4-37.628-21.4m85.637,2.166c16.96,0,29.565,21.4,37.628,21.4-8.063,0-20.668,21.4-37.628,21.4s-29.564-21.4-37.627-21.4c8.063,0,20.668-21.4,37.627-21.4m10.912-2.166c8.063,0,20.513-21.4,37.627-21.4v-.063c16.33.226,29.346,21.388,37.366,21.388-8.063,0-21.175,21.4-37.627,21.4v.063c-16.979-.217-29.345-21.389-37.366-21.389m85.128,2.093c16.959,0,29.565,21.4,37.628,21.4-8.063,0-20.669,21.4-37.628,21.4s-29.564-21.4-37.627-21.4c8.063,0,20.668-21.4,37.627-21.4m10.265-2.167c8.063,0,20.82-21.4,37.627-21.4s29.565,21.4,37.628,21.4c-8.063,0-20.821,21.4-37.628,21.4s-29.564-21.4-37.627-21.4m85.637,2.167c16.959,0,29.564,21.4,37.627,21.4-8.063,0-20.668,21.4-37.627,21.4s-29.564-21.4-37.628-21.4c8.064,0,20.669-21.4,37.628-21.4m10.266-2.167c8.063,0,20.82-21.4,37.627-21.4s29.565,21.4,37.628,21.4c-8.063,0-20.821,21.4-37.628,21.4s-29.564-21.4-37.627-21.4m85.637,2.167c16.959,0,29.564,21.4,37.627,21.4-8.063,0-20.668,21.4-37.627,21.4s-29.565-21.4-37.628-21.4c8.063,0,20.668-21.4,37.628-21.4m10.264-2.167c8.063,0,20.821-21.4,37.628-21.4s29.564,21.4,37.627,21.4c-8.063,0-20.82,21.4-37.627,21.4s-29.565-21.4-37.628-21.4m85.637,2.167c16.961,0,29.565,21.4,37.628,21.4-8.063,0-20.668,21.4-37.628,21.4s-29.564-21.4-37.627-21.4c8.063,0,20.668-21.4,37.627-21.4m10.912-2.167c8.063,0,20.514-21.4,37.628-21.4,16.452,0,29.564,21.4,37.627,21.4-8.063,0-21.175,21.4-37.627,21.4-17.115,0-29.565-21.4-37.628-21.4m85.39,2.167c16.959,0,29.565,21.4,37.628,21.4-8.063,0-20.669,21.4-37.628,21.4s-29.564-21.4-37.627-21.4c8.063,0,20.668-21.4,37.627-21.4m10.265-2.167c8.063,0,20.82-21.4,37.627-21.4s29.565,21.4,37.628,21.4c-8.063,0-20.821,21.4-37.628,21.4s-29.564-21.4-37.627-21.4m85.637,2.167c16.959,0,29.564,21.4,37.627,21.4-8.063,0-20.668,21.4-37.627,21.4s-29.564-21.4-37.628-21.4c8.064,0,20.669-21.4,37.628-21.4m10.265-2.167c8.063,0,20.82-21.4,37.627-21.4s29.565,21.4,37.628,21.4c-8.063,0-20.821,21.4-37.628,21.4s-29.564-21.4-37.627-21.4m85.637,2.167c16.959,0,29.564,21.4,37.627,21.4-8.063,0-20.668,21.4-37.627,21.4s-29.565-21.4-37.628-21.4c8.063,0,20.668-21.4,37.628-21.4m10.264-2.167c8.063,0,20.821-21.4,37.628-21.4s29.564,21.4,37.627,21.4c-8.063,0-20.82,21.4-37.627,21.4s-29.565-21.4-37.628-21.4m85.637,2.167c16.96,0,29.565,21.4,37.628,21.4-8.063,0-20.668,21.4-37.628,21.4s-29.564-21.4-37.627-21.4c8.063,0,20.668-21.4,37.627-21.4m10.912-2.167c8.063,0,20.514-21.4,37.628-21.4,16.452,0,29.564,21.4,37.627,21.4-8.063,0-21.175,21.4-37.627,21.4-17.114,0-29.565-21.4-37.628-21.4m85.39,2.167c16.959,0,29.565,21.4,37.628,21.4-8.063,0-20.669,21.4-37.628,21.4s-29.564-21.4-37.627-21.4c8.063,0,20.668-21.4,37.627-21.4m10.266-2.167c8.063,0,20.82-21.4,37.627-21.4s29.565,21.4,37.628,21.4c-8.063,0-20.821,21.4-37.628,21.4s-29.564-21.4-37.627-21.4m85.637,2.167c16.959,0,29.564,21.4,37.627,21.4-8.063,0-20.668,21.4-37.627,21.4s-29.565-21.4-37.628-21.4c8.063,0,20.669-21.4,37.628-21.4m10.266-2.167c8.063,0,20.82-21.4,37.627-21.4s29.565,21.4,37.628,21.4c-8.063,0-20.821,21.4-37.628,21.4s-29.564-21.4-37.627-21.4m85.637,2.167c16.959,0,29.564,21.4,37.627,21.4-8.063,0-20.668,21.4-37.627,21.4s-29.565-21.4-37.628-21.4c8.063,0,20.668-21.4,37.628-21.4m10.265-2.167c8.063,0,20.821-21.4,37.628-21.4s29.564,21.4,37.627,21.4c-8.063,0-20.82,21.4-37.627,21.4s-29.565-21.4-37.628-21.4m85.637,2.167c16.96,0,29.565,21.4,37.628,21.4-8.063,0-20.668,21.4-37.628,21.4s-29.564-21.4-37.627-21.4c8.063,0,20.668-21.4,37.627-21.4m10.912-2.167c8.063,0,20.514-21.4,37.628-21.4,16.452,0,29.564,21.4,37.627,21.4-8.063,0-21.175,21.4-37.627,21.4-17.115,0-29.565-21.4-37.628-21.4m85.39,2.167c16.959,0,29.565,21.4,37.628,21.4-8.063,0-20.669,21.4-37.628,21.4s-29.564-21.4-37.627-21.4c8.063,0,20.668-21.4,37.627-21.4m10.265-2.167c8.063,0,20.82-21.4,37.627-21.4s29.565,21.4,37.628,21.4c-8.063,0-20.821,21.4-37.628,21.4s-29.564-21.4-37.627-21.4m85.637,2.167c16.959,0,29.564,21.4,37.627,21.4-8.063,0-20.668,21.4-37.627,21.4s-29.565-21.4-37.628-21.4c8.063,0,20.669-21.4,37.628-21.4m10.266-2.167c8.062,0,20.82-21.4,37.627-21.4s29.565,21.4,37.628,21.4c-8.063,0-20.821,21.4-37.628,21.4s-29.565-21.4-37.627-21.4m85.637,2.167c16.959,0,29.564,21.4,37.627,21.4-8.063,0-20.668,21.4-37.627,21.4s-29.565-21.4-37.628-21.4c8.063,0,20.668-21.4,37.628-21.4m-37.628-26.142c8.063,0,20.668-21.4,37.628-21.4s29.564,21.4,37.627,21.4c-8.063,0-20.668,21.4-37.627,21.4s-29.565-21.4-37.628-21.4m0-48.36c8.063,0,20.668-21.4,37.628-21.4s29.564,21.4,37.627,21.4c-8.063,0-20.668,21.4-37.627,21.4s-29.565-21.4-37.628-21.4m0-47.346c8.063,0,20.668-21.4,37.628-21.4s29.564,21.4,37.627,21.4c-8.063,0-20.668,21.4-37.627,21.4s-29.565-21.4-37.628-21.4m-10.381-2.577c-16.807,0-29.565-21.4-37.627-21.4,8.062,0,20.82-21.4,37.627-21.4s29.565,21.4,37.628,21.4c-8.063,0-20.821,21.4-37.628,21.4m-10.266,2.577c-8.063,0-20.668,21.4-37.627,21.4s-29.565-21.4-37.628-21.4c8.063,0,20.669-21.4,37.628-21.4s29.564,21.4,37.627,21.4m-85.637-2.577c-16.807,0-29.564-21.4-37.627-21.4,8.063,0,20.82-21.4,37.627-21.4s29.565,21.4,37.628,21.4c-8.063,0-20.821,21.4-37.628,21.4m-10.264,2.577c-8.063,0-20.669,21.4-37.628,21.4s-29.564-21.4-37.627-21.4c8.063,0,20.668-21.4,37.627-21.4s29.565,21.4,37.628,21.4m-85.39-2.577c-17.115,0-29.565-21.4-37.628-21.4,8.063,0,20.514-21.4,37.628-21.4,16.045,0,29.564,21.4,37.627,21.4-8.063,0-21.582,21.4-37.627,21.4m-10.912,2.577c-8.063,0-20.668,21.4-37.628,21.4s-29.564-21.4-37.627-21.4c8.063,0,20.668-21.4,37.627-21.4s29.565,21.4,37.628,21.4m-85.637-2.577c-16.808,0-29.565-21.4-37.628-21.4,8.063,0,20.821-21.4,37.628-21.4s29.564,21.4,37.627,21.4c-8.063,0-20.82,21.4-37.627,21.4m-10.266,2.577c-8.063,0-20.668,21.4-37.627,21.4s-29.565-21.4-37.628-21.4c8.063,0,20.668-21.4,37.628-21.4s29.564,21.4,37.627,21.4m-85.637-2.577c-16.808,0-29.564-21.4-37.627-21.4,8.063,0,20.82-21.4,37.627-21.4s29.565,21.4,37.628,21.4c-8.063,0-20.821,21.4-37.628,21.4m-10.266,2.577c-8.063,0-20.668,21.4-37.627,21.4s-29.565-21.4-37.628-21.4c8.063,0,20.669-21.4,37.628-21.4s29.564,21.4,37.627,21.4m-85.637-2.577c-16.807,0-29.564-21.4-37.627-21.4,8.063,0,20.82-21.4,37.627-21.4s29.565,21.4,37.628,21.4c-8.063,0-20.821,21.4-37.628,21.4m-10.264,2.577c-8.063,0-20.669,21.4-37.628,21.4s-29.564-21.4-37.627-21.4c8.063,0,20.668-21.4,37.627-21.4s29.565,21.4,37.628,21.4m-85.39-2.577c-17.114,0-29.565-21.4-37.628-21.4,8.063,0,20.514-21.4,37.628-21.4,16.045,0,29.564,21.4,37.627,21.4-8.063,0-21.582,21.4-37.627,21.4m-10.912,2.577c-8.063,0-20.668,21.4-37.628,21.4s-29.564-21.4-37.627-21.4c8.063,0,20.668-21.4,37.627-21.4s29.565,21.4,37.628,21.4m-85.637-2.577c-16.807,0-29.565-21.4-37.628-21.4,8.063,0,20.821-21.4,37.628-21.4s29.564,21.4,37.627,21.4c-8.063,0-20.82,21.4-37.627,21.4m-10.266,2.577c-8.063,0-20.668,21.4-37.627,21.4s-29.565-21.4-37.628-21.4c8.063,0,20.668-21.4,37.628-21.4s29.564,21.4,37.627,21.4m-85.637-2.577c-16.807,0-29.564-21.4-37.627-21.4,8.063,0,20.82-21.4,37.627-21.4s29.565,21.4,37.628,21.4c-8.063,0-20.821,21.4-37.628,21.4m-10.265,2.577c-8.063,0-20.668,21.4-37.627,21.4s-29.564-21.4-37.628-21.4c8.064,0,20.669-21.4,37.628-21.4s29.564,21.4,37.627,21.4m-85.637-2.577c-16.807,0-29.564-21.4-37.627-21.4,8.063,0,20.82-21.4,37.627-21.4s29.565,21.4,37.628,21.4c-8.063,0-20.821,21.4-37.628,21.4m-10.264,2.577c-8.063,0-20.669,21.4-37.628,21.4s-29.564-21.4-37.627-21.4c8.063,0,20.668-21.4,37.627-21.4s29.565,21.4,37.628,21.4m-85.39-2.577c-17.115,0-29.565-21.4-37.628-21.4,8.063,0,20.514-21.4,37.628-21.4,16.045,0,29.564,21.4,37.627,21.4-8.063,0-21.582,21.4-37.627,21.4m-10.912,2.577c-8.063,0-20.668,21.4-37.628,21.4s-29.564-21.4-37.627-21.4c8.063,0,20.668-21.4,37.627-21.4s29.565,21.4,37.628,21.4m-85.637-2.577c-16.807,0-29.565-21.4-37.628-21.4,8.063,0,20.821-21.4,37.628-21.4s29.564,21.4,37.627,21.4c-8.063,0-20.82,21.4-37.627,21.4m-10.266,2.577c-8.063,0-20.668,21.4-37.627,21.4s-29.565-21.4-37.628-21.4c8.063,0,20.668-21.4,37.628-21.4s29.564,21.4,37.627,21.4m-85.637-2.577c-16.808,0-29.564-21.4-37.627-21.4,8.063,0,20.82-21.4,37.627-21.4s29.565,21.4,37.628,21.4c-8.063,0-20.821,21.4-37.628,21.4m-10.266,2.577c-8.063,0-20.668,21.4-37.627,21.4s-29.564-21.4-37.628-21.4c8.064,0,20.669-21.4,37.628-21.4s29.564,21.4,37.627,21.4m-85.637-2.577c-16.808,0-29.564-21.4-37.627-21.4,8.063,0,20.82-21.4,37.627-21.4s29.565,21.4,37.628,21.4c-8.063,0-20.821,21.4-37.628,21.4m-10.264,2.577c-8.063,0-20.669,21.4-37.628,21.4s-29.564-21.4-37.627-21.4c8.063,0,20.668-21.4,37.627-21.4s29.565,21.4,37.628,21.4m-85.39-2.577v.063c-16.979-.217-29.345-21.389-37.366-21.389,8.063,0,20.513-21.4,37.627-21.4v-.062c15.93.231,29.347,21.388,37.366,21.388-8.063,0-21.582,21.4-37.627,21.4m-10.649,2.65c-8.063,0-20.668,21.4-37.628,21.4s-29.564-21.4-37.627-21.4c8.063,0,20.668-21.4,37.627-21.4s29.565,21.4,37.628,21.4m-85.637-2.576c-16.807,0-29.565-21.4-37.628-21.4,8.063,0,20.821-21.4,37.628-21.4s29.564,21.4,37.627,21.4c-8.063,0-20.82,21.4-37.627,21.4m-10.265,2.576c-8.063,0-20.668,21.4-37.627,21.4s-29.565-21.4-37.628-21.4c8.063,0,20.668-21.4,37.628-21.4s29.564,21.4,37.627,21.4m-85.637-2.576c-16.808,0-29.565-21.4-37.628-21.4,8.063,0,20.821-21.4,37.628-21.4s29.564,21.4,37.627,21.4c-8.063,0-20.82,21.4-37.627,21.4m-10.265,2.576c-8.063,0-20.668,21.4-37.627,21.4s-29.565-21.4-37.628-21.4c8.063,0,20.668-21.4,37.628-21.4s29.564,21.4,37.627,21.4m0,47.346c-8.063,0-20.668,21.4-37.627,21.4s-29.565-21.4-37.628-21.4c8.063,0,20.668-21.4,37.628-21.4s29.564,21.4,37.627,21.4m0,48.361c-8.063,0-20.668,21.4-37.627,21.4s-29.565-21.4-37.628-21.4c8.063,0,20.668-21.4,37.628-21.4s29.564,21.4,37.627,21.4m0,47.541c-8.063,0-20.668,21.4-37.627,21.4s-29.565-21.4-37.628-21.4c8.063,0,20.668-21.4,37.628-21.4s29.564,21.4,37.627,21.4m0,48.167c-8.063,0-20.668,21.4-37.627,21.4s-29.565-21.4-37.628-21.4c8.063,0,20.668-21.4,37.628-21.4s29.564,21.4,37.627,21.4M154.05,314.847c8.063,0,20.821-21.4,37.628-21.4s29.564,21.4,37.627,21.4c-8.063,0-20.82,21.4-37.627,21.4s-29.565-21.4-37.628-21.4m85.638,2.577c16.959,0,29.564,21.4,37.627,21.4-8.063,0-20.668,21.4-37.627,21.4s-29.565-21.4-37.628-21.4c8.063,0,20.668-21.4,37.628-21.4m10.264-2.577c8.063,0,20.821-21.4,37.628-21.4s29.564,21.4,37.627,21.4c-8.063,0-20.82,21.4-37.627,21.4s-29.565-21.4-37.628-21.4m85.637,2.577c16.96,0,29.565,21.4,37.628,21.4-8.063,0-20.668,21.4-37.628,21.4s-29.564-21.4-37.627-21.4c8.063,0,20.668-21.4,37.627-21.4m10.912-2.577c8.063,0,20.513-21.4,37.627-21.4v-.063c16.33.226,29.346,21.388,37.366,21.388-8.063,0-21.175,21.4-37.627,21.4v.064c-16.979-.218-29.345-21.39-37.366-21.39m85.128,2.5c16.959,0,29.565,21.4,37.628,21.4-8.063,0-20.669,21.4-37.628,21.4s-29.564-21.4-37.627-21.4c8.063,0,20.668-21.4,37.627-21.4m10.265-2.577c8.063,0,20.82-21.4,37.627-21.4s29.565,21.4,37.628,21.4c-8.063,0-20.821,21.4-37.628,21.4s-29.564-21.4-37.627-21.4m85.637,2.577c16.959,0,29.564,21.4,37.627,21.4-8.063,0-20.668,21.4-37.627,21.4s-29.564-21.4-37.628-21.4c8.064,0,20.669-21.4,37.628-21.4m10.266-2.577c8.063,0,20.82-21.4,37.627-21.4s29.565,21.4,37.628,21.4c-8.063,0-20.821,21.4-37.628,21.4s-29.564-21.4-37.627-21.4m85.637,2.577c16.959,0,29.564,21.4,37.627,21.4-8.063,0-20.668,21.4-37.627,21.4s-29.565-21.4-37.628-21.4c8.063,0,20.668-21.4,37.628-21.4m10.264-2.577c8.063,0,20.821-21.4,37.628-21.4s29.564,21.4,37.627,21.4c-8.063,0-20.82,21.4-37.627,21.4s-29.565-21.4-37.628-21.4m85.637,2.577c16.961,0,29.565,21.4,37.628,21.4-8.063,0-20.668,21.4-37.628,21.4s-29.564-21.4-37.627-21.4c8.063,0,20.668-21.4,37.627-21.4m10.912-2.577c8.063,0,20.514-21.4,37.628-21.4,16.452,0,29.564,21.4,37.627,21.4-8.063,0-21.175,21.4-37.627,21.4-17.115,0-29.565-21.4-37.628-21.4m85.39,2.577c16.959,0,29.565,21.4,37.628,21.4-8.063,0-20.669,21.4-37.628,21.4s-29.564-21.4-37.627-21.4c8.063,0,20.668-21.4,37.627-21.4m10.265-2.577c8.063,0,20.82-21.4,37.627-21.4s29.565,21.4,37.628,21.4c-8.063,0-20.821,21.4-37.628,21.4s-29.564-21.4-37.627-21.4m85.637,2.577c16.959,0,29.564,21.4,37.627,21.4-8.063,0-20.668,21.4-37.627,21.4s-29.564-21.4-37.628-21.4c8.064,0,20.669-21.4,37.628-21.4m10.265-2.577c8.063,0,20.82-21.4,37.627-21.4s29.565,21.4,37.628,21.4c-8.063,0-20.821,21.4-37.628,21.4s-29.564-21.4-37.627-21.4m85.637,2.577c16.959,0,29.564,21.4,37.627,21.4-8.063,0-20.668,21.4-37.627,21.4s-29.565-21.4-37.628-21.4c8.063,0,20.668-21.4,37.628-21.4m10.264-2.577c8.063,0,20.821-21.4,37.628-21.4s29.564,21.4,37.627,21.4c-8.063,0-20.82,21.4-37.627,21.4s-29.565-21.4-37.628-21.4m85.637,2.577c16.96,0,29.565,21.4,37.628,21.4-8.063,0-20.668,21.4-37.628,21.4s-29.564-21.4-37.627-21.4c8.063,0,20.668-21.4,37.627-21.4m10.912-2.577c8.063,0,20.514-21.4,37.628-21.4,16.452,0,29.564,21.4,37.627,21.4-8.063,0-21.175,21.4-37.627,21.4-17.114,0-29.565-21.4-37.628-21.4m85.39,2.577c16.959,0,29.565,21.4,37.628,21.4-8.063,0-20.669,21.4-37.628,21.4s-29.564-21.4-37.627-21.4c8.063,0,20.668-21.4,37.627-21.4m10.266-2.577c8.063,0,20.82-21.4,37.627-21.4s29.565,21.4,37.628,21.4c-8.063,0-20.821,21.4-37.628,21.4s-29.564-21.4-37.627-21.4m85.637,2.577c16.959,0,29.564,21.4,37.627,21.4-8.063,0-20.668,21.4-37.627,21.4s-29.565-21.4-37.628-21.4c8.063,0,20.669-21.4,37.628-21.4m10.266-2.577c8.063,0,20.82-21.4,37.627-21.4s29.565,21.4,37.628,21.4c-8.063,0-20.821,21.4-37.628,21.4s-29.564-21.4-37.627-21.4m85.637,2.577c16.959,0,29.564,21.4,37.627,21.4-8.063,0-20.668,21.4-37.627,21.4s-29.565-21.4-37.628-21.4c8.063,0,20.668-21.4,37.628-21.4m10.265-2.577c8.063,0,20.821-21.4,37.628-21.4s29.564,21.4,37.627,21.4c-8.063,0-20.82,21.4-37.627,21.4s-29.565-21.4-37.628-21.4m85.637,2.577c16.96,0,29.565,21.4,37.628,21.4-8.063,0-20.668,21.4-37.628,21.4s-29.564-21.4-37.627-21.4c8.063,0,20.668-21.4,37.627-21.4m10.912-2.577c8.063,0,20.514-21.4,37.628-21.4,16.452,0,29.564,21.4,37.627,21.4-8.063,0-21.175,21.4-37.627,21.4-17.115,0-29.565-21.4-37.628-21.4m85.39,2.577c16.959,0,29.565,21.4,37.628,21.4-8.063,0-20.669,21.4-37.628,21.4s-29.564-21.4-37.627-21.4c8.063,0,20.668-21.4,37.627-21.4m10.265-2.577c8.063,0,20.82-21.4,37.627-21.4s29.565,21.4,37.628,21.4c-8.063,0-20.821,21.4-37.628,21.4s-29.564-21.4-37.627-21.4m85.637,2.577c16.959,0,29.564,21.4,37.627,21.4-8.063,0-20.668,21.4-37.627,21.4s-29.565-21.4-37.628-21.4c8.063,0,20.669-21.4,37.628-21.4m10.266-2.577c8.062,0,20.82-21.4,37.627-21.4s29.565,21.4,37.628,21.4c-8.063,0-20.821,21.4-37.628,21.4s-29.565-21.4-37.627-21.4m85.637,2.577c16.959,0,29.564,21.4,37.627,21.4-8.063,0-20.668,21.4-37.627,21.4s-29.565-21.4-37.628-21.4c8.063,0,20.668-21.4,37.628-21.4m10.264-2.577c8.063,0,20.821-21.4,37.628-21.4s29.564,21.4,37.627,21.4c-8.063,0-20.82,21.4-37.627,21.4s-29.565-21.4-37.628-21.4m0-47.756c8.063,0,20.821-21.4,37.628-21.4s29.564,21.4,37.627,21.4c-8.063,0-20.82,21.4-37.627,21.4s-29.565-21.4-37.628-21.4m0-47.951c8.063,0,20.821-21.4,37.628-21.4s29.564,21.4,37.627,21.4c-8.063,0-20.82,21.4-37.627,21.4s-29.565-21.4-37.628-21.4m0-47.756c8.063,0,20.821-21.4,37.628-21.4s29.564,21.4,37.627,21.4c-8.063,0-20.82,21.4-37.627,21.4s-29.565-21.4-37.628-21.4m0-47.952c8.063,0,20.821-21.4,37.628-21.4s29.564,21.4,37.627,21.4c-8.063,0-20.82,21.4-37.627,21.4s-29.565-21.4-37.628-21.4m0-47.756c8.063,0,20.821-21.4,37.628-21.4s29.564,21.4,37.627,21.4c-8.063,0-20.82,21.4-37.627,21.4s-29.565-21.4-37.628-21.4m27.363,23.176c-8.063,0-20.668,21.4-37.627,21.4s-29.565-21.4-37.628-21.4c8.063,0,20.668-21.4,37.628-21.4s29.564,21.4,37.627,21.4M1727.443,97c-16.807,0-29.565-21.4-37.627-21.4,8.062,0,20.82-21.4,37.627-21.4s29.565,21.4,37.628,21.4c-8.063,0-20.821,21.4-37.628,21.4m-10.266,1.778c-8.063,0-20.668,21.4-37.627,21.4s-29.565-21.4-37.628-21.4c8.063,0,20.669-21.4,37.628-21.4s29.564,21.4,37.627,21.4M1631.54,97c-16.807,0-29.564-21.4-37.627-21.4,8.063,0,20.82-21.4,37.627-21.4s29.565,21.4,37.628,21.4c-8.063,0-20.821,21.4-37.628,21.4m-10.264,1.778c-8.063,0-20.669,21.4-37.628,21.4s-29.564-21.4-37.627-21.4c8.063,0,20.668-21.4,37.627-21.4s29.565,21.4,37.628,21.4M1535.886,97c-17.115,0-29.565-21.4-37.628-21.4,8.063,0,20.514-21.4,37.628-21.4,16.045,0,29.564,21.4,37.627,21.4-8.063,0-21.582,21.4-37.627,21.4m-10.912,1.778c-8.063,0-20.668,21.4-37.628,21.4s-29.564-21.4-37.627-21.4c8.063,0,20.668-21.4,37.627-21.4s29.565,21.4,37.628,21.4M1439.338,97c-16.808,0-29.565-21.4-37.628-21.4,8.063,0,20.821-21.4,37.628-21.4s29.564,21.4,37.627,21.4c-8.063,0-20.82,21.4-37.627,21.4m-10.266,1.778c-8.063,0-20.668,21.4-37.627,21.4s-29.565-21.4-37.628-21.4c8.063,0,20.668-21.4,37.628-21.4s29.564,21.4,37.627,21.4M1343.436,97c-16.808,0-29.564-21.4-37.627-21.4,8.063,0,20.82-21.4,37.627-21.4S1373,75.6,1381.064,75.6c-8.063,0-20.821,21.4-37.628,21.4m-10.266,1.778c-8.063,0-20.668,21.4-37.627,21.4s-29.565-21.4-37.628-21.4c8.063,0,20.669-21.4,37.628-21.4s29.564,21.4,37.627,21.4M1247.534,97c-16.807,0-29.564-21.4-37.627-21.4,8.063,0,20.82-21.4,37.627-21.4s29.565,21.4,37.628,21.4c-8.063,0-20.821,21.4-37.628,21.4m-10.264,1.778c-8.063,0-20.669,21.4-37.628,21.4s-29.564-21.4-37.627-21.4c8.063,0,20.668-21.4,37.627-21.4s29.565,21.4,37.628,21.4M1151.88,97c-17.114,0-29.565-21.4-37.628-21.4,8.063,0,20.514-21.4,37.628-21.4,16.045,0,29.564,21.4,37.627,21.4-8.063,0-21.582,21.4-37.627,21.4m-10.912,1.778c-8.063,0-20.668,21.4-37.628,21.4s-29.564-21.4-37.627-21.4c8.063,0,20.668-21.4,37.627-21.4s29.565,21.4,37.628,21.4M1055.332,97c-16.807,0-29.565-21.4-37.628-21.4,8.063,0,20.821-21.4,37.628-21.4s29.564,21.4,37.627,21.4c-8.063,0-20.82,21.4-37.627,21.4m-10.266,1.778c-8.063,0-20.668,21.4-37.627,21.4s-29.565-21.4-37.628-21.4c8.063,0,20.668-21.4,37.628-21.4s29.564,21.4,37.627,21.4M959.429,97c-16.807,0-29.564-21.4-37.627-21.4,8.063,0,20.82-21.4,37.627-21.4s29.565,21.4,37.628,21.4c-8.063,0-20.821,21.4-37.628,21.4M949.164,98.78c-8.063,0-20.668,21.4-37.627,21.4s-29.564-21.4-37.628-21.4c8.064,0,20.669-21.4,37.628-21.4s29.564,21.4,37.627,21.4M863.527,97C846.72,97,833.963,75.6,825.9,75.6c8.063,0,20.82-21.4,37.627-21.4s29.565,21.4,37.628,21.4c-8.063,0-20.821,21.4-37.628,21.4M853.263,98.78c-8.063,0-20.669,21.4-37.628,21.4s-29.564-21.4-37.627-21.4c8.063,0,20.668-21.4,37.627-21.4s29.565,21.4,37.628,21.4M767.873,97c-17.115,0-29.565-21.4-37.628-21.4,8.063,0,20.514-21.4,37.628-21.4,16.045,0,29.564,21.4,37.627,21.4-8.063,0-21.582,21.4-37.627,21.4M756.962,98.78c-8.063,0-20.668,21.4-37.628,21.4s-29.564-21.4-37.627-21.4c8.063,0,20.668-21.4,37.627-21.4s29.565,21.4,37.628,21.4M671.325,97C654.517,97,641.76,75.6,633.7,75.6c8.063,0,20.821-21.4,37.628-21.4s29.564,21.4,37.627,21.4c-8.063,0-20.82,21.4-37.627,21.4M661.059,98.78c-8.063,0-20.668,21.4-37.627,21.4s-29.565-21.4-37.628-21.4c8.063,0,20.668-21.4,37.628-21.4S653,98.78,661.059,98.78M575.423,97c-16.808,0-29.564-21.4-37.627-21.4,8.063,0,20.82-21.4,37.627-21.4s29.565,21.4,37.628,21.4c-8.063,0-20.821,21.4-37.628,21.4M565.157,98.78c-8.063,0-20.668,21.4-37.627,21.4s-29.564-21.4-37.628-21.4c8.064,0,20.669-21.4,37.628-21.4s29.564,21.4,37.627,21.4M479.521,97c-16.808,0-29.564-21.4-37.627-21.4,8.063,0,20.82-21.4,37.627-21.4s29.565,21.4,37.628,21.4c-8.063,0-20.821,21.4-37.628,21.4M469.256,98.78c-8.063,0-20.669,21.4-37.628,21.4S402.064,98.78,394,98.78c8.063,0,20.668-21.4,37.627-21.4s29.565,21.4,37.628,21.4M383.866,97v.064c-16.979-.218-29.345-21.389-37.366-21.389,8.063,0,20.513-21.4,37.627-21.4v-.063c15.93.232,29.347,21.389,37.366,21.389-8.063,0-21.582,21.4-37.627,21.4m-10.649,1.852c-8.063,0-20.668,21.4-37.628,21.4s-29.564-21.4-37.627-21.4c8.063,0,20.668-21.4,37.627-21.4s29.565,21.4,37.628,21.4M287.58,97.076c-16.807,0-29.565-21.4-37.628-21.4,8.063,0,20.821-21.4,37.628-21.4s29.564,21.4,37.627,21.4c-8.063,0-20.82,21.4-37.627,21.4m-10.265,1.778c-8.063,0-20.668,21.4-37.627,21.4s-29.565-21.4-37.628-21.4c8.063,0,20.668-21.4,37.628-21.4s29.564,21.4,37.627,21.4m-85.637-1.778c-16.808,0-29.565-21.4-37.628-21.4,8.063,0,20.821-21.4,37.628-21.4s29.564,21.4,37.627,21.4c-8.063,0-20.82,21.4-37.627,21.4m-10.265,1.778c-8.063,0-20.668,21.4-37.627,21.4s-29.565-21.4-37.628-21.4c8.063,0,20.668-21.4,37.628-21.4s29.564,21.4,37.627,21.4M95.776,97.076c-16.808,0-29.564-21.4-37.627-21.4,8.063,0,20.82-21.4,37.627-21.4s29.565,21.4,37.628,21.4c-8.063,0-20.821,21.4-37.628,21.4M133.4,123.433c-8.063,0-20.821,21.4-37.628,21.4s-29.564-21.4-37.627-21.4c8.063,0,20.82-21.4,37.627-21.4s29.565,21.4,37.628,21.4m0,47.951c-8.063,0-20.821,21.4-37.628,21.4s-29.564-21.4-37.627-21.4c8.063,0,20.82-21.4,37.627-21.4s29.565,21.4,37.628,21.4m0,47.757c-8.063,0-20.821,21.4-37.628,21.4s-29.564-21.4-37.627-21.4c8.063,0,20.82-21.4,37.627-21.4s29.565,21.4,37.628,21.4m0,47.951c-8.063,0-20.821,21.4-37.628,21.4s-29.564-21.4-37.627-21.4c8.063,0,20.82-21.4,37.627-21.4s29.565,21.4,37.628,21.4m0,47.756c-8.063,0-20.821,21.4-37.628,21.4s-29.564-21.4-37.627-21.4c8.063,0,20.82-21.4,37.627-21.4s29.565,21.4,37.628,21.4m1775.577,23.9c-8.063,0-20.668,21.4-37.628,21.4s-29.564-21.4-37.627-21.4c8.063,0,20.668-21.4,37.627-21.4s29.565,21.4,37.628,21.4m0-48.167c-8.063,0-20.668,21.4-37.628,21.4s-29.564-21.4-37.627-21.4c8.063,0,20.668-21.4,37.627-21.4s29.565,21.4,37.628,21.4m0-47.541c-8.063,0-20.668,21.4-37.628,21.4s-29.564-21.4-37.627-21.4c8.063,0,20.668-21.4,37.627-21.4s29.565,21.4,37.628,21.4m0-48.36c-8.063,0-20.668,21.4-37.628,21.4s-29.564-21.4-37.627-21.4c8.063,0,20.668-21.4,37.627-21.4s29.565,21.4,37.628,21.4m0-47.346c-8.063,0-20.668,21.4-37.628,21.4s-29.564-21.4-37.627-21.4c8.063,0,20.668-21.4,37.627-21.4s29.565,21.4,37.628,21.4m0-48.556c-8.063,0-20.668,21.4-37.628,21.4s-29.564-21.4-37.627-21.4c8.063,0,20.668-21.4,37.627-21.4s29.565,21.4,37.628,21.4m0-47.152c-8.063,0-20.668,21.4-37.628,21.4s-29.564-21.4-37.627-21.4c8.063,0,20.668-21.4,37.627-21.4s29.565,21.4,37.628,21.4M1823.345,6.253c16.807,0,29.564,21.4,37.627,21.4-8.063,0-20.82,21.4-37.627,21.4s-29.565-21.4-37.628-21.4c8.063,0,20.821-21.4,37.628-21.4m-10.266,45.375c-8.063,0-20.668,21.4-37.627,21.4s-29.565-21.4-37.628-21.4c8.063,0,20.668-21.4,37.628-21.4s29.564,21.4,37.627,21.4M1727.443,6.253c16.807,0,29.565,21.4,37.628,21.4-8.063,0-20.821,21.4-37.628,21.4s-29.565-21.4-37.627-21.4c8.062,0,20.82-21.4,37.627-21.4m-10.266,45.375c-8.063,0-20.668,21.4-37.627,21.4s-29.565-21.4-37.628-21.4c8.063,0,20.669-21.4,37.628-21.4s29.564,21.4,37.627,21.4M1631.54,6.253c16.807,0,29.565,21.4,37.628,21.4-8.063,0-20.821,21.4-37.628,21.4s-29.564-21.4-37.627-21.4c8.063,0,20.82-21.4,37.627-21.4m-10.264,45.375c-8.063,0-20.669,21.4-37.628,21.4s-29.564-21.4-37.627-21.4c8.063,0,20.668-21.4,37.627-21.4s29.565,21.4,37.628,21.4m-85.39-45.375c16.045,0,29.564,21.4,37.627,21.4-8.063,0-21.582,21.4-37.627,21.4-17.115,0-29.565-21.4-37.628-21.4,8.063,0,20.514-21.4,37.628-21.4m-10.912,45.375c-8.063,0-20.668,21.4-37.628,21.4s-29.564-21.4-37.627-21.4c8.063,0,20.668-21.4,37.627-21.4s29.565,21.4,37.628,21.4M1439.338,6.253c16.807,0,29.564,21.4,37.627,21.4-8.063,0-20.82,21.4-37.627,21.4s-29.565-21.4-37.628-21.4c8.063,0,20.821-21.4,37.628-21.4m-10.266,45.375c-8.063,0-20.668,21.4-37.627,21.4s-29.565-21.4-37.628-21.4c8.063,0,20.668-21.4,37.628-21.4s29.564,21.4,37.627,21.4M1343.436,6.253c16.807,0,29.565,21.4,37.628,21.4-8.063,0-20.821,21.4-37.628,21.4s-29.564-21.4-37.627-21.4c8.063,0,20.82-21.4,37.627-21.4m-10.266,45.375c-8.063,0-20.668,21.4-37.627,21.4s-29.565-21.4-37.628-21.4c8.063,0,20.669-21.4,37.628-21.4s29.564,21.4,37.627,21.4M1247.534,6.253c16.807,0,29.565,21.4,37.628,21.4-8.063,0-20.821,21.4-37.628,21.4s-29.564-21.4-37.627-21.4c8.063,0,20.82-21.4,37.627-21.4m-10.264,45.375c-8.063,0-20.669,21.4-37.628,21.4s-29.564-21.4-37.627-21.4c8.063,0,20.668-21.4,37.627-21.4s29.565,21.4,37.628,21.4M1151.88,6.253c16.045,0,29.564,21.4,37.627,21.4-8.063,0-21.582,21.4-37.627,21.4-17.114,0-29.565-21.4-37.628-21.4,8.063,0,20.514-21.4,37.628-21.4m-10.912,45.375c-8.063,0-20.668,21.4-37.628,21.4s-29.564-21.4-37.627-21.4c8.063,0,20.668-21.4,37.627-21.4s29.565,21.4,37.628,21.4M1055.332,6.253c16.807,0,29.564,21.4,37.627,21.4-8.063,0-20.82,21.4-37.627,21.4s-29.565-21.4-37.628-21.4c8.063,0,20.821-21.4,37.628-21.4m-10.266,45.375c-8.063,0-20.668,21.4-37.627,21.4s-29.565-21.4-37.628-21.4c8.063,0,20.668-21.4,37.628-21.4s29.564,21.4,37.627,21.4M959.429,6.253c16.807,0,29.565,21.4,37.628,21.4-8.063,0-20.821,21.4-37.628,21.4s-29.564-21.4-37.627-21.4c8.063,0,20.82-21.4,37.627-21.4M949.164,51.628c-8.063,0-20.668,21.4-37.627,21.4s-29.564-21.4-37.628-21.4c8.064,0,20.669-21.4,37.628-21.4s29.564,21.4,37.627,21.4M863.527,6.253c16.807,0,29.565,21.4,37.628,21.4-8.063,0-20.821,21.4-37.628,21.4s-29.564-21.4-37.627-21.4c8.063,0,20.82-21.4,37.627-21.4M853.263,51.628c-8.063,0-20.669,21.4-37.628,21.4s-29.564-21.4-37.627-21.4c8.063,0,20.668-21.4,37.627-21.4s29.565,21.4,37.628,21.4M767.873,6.253c16.045,0,29.564,21.4,37.627,21.4-8.063,0-21.582,21.4-37.627,21.4-17.115,0-29.565-21.4-37.628-21.4,8.063,0,20.514-21.4,37.628-21.4M756.962,51.628c-8.063,0-20.668,21.4-37.628,21.4s-29.564-21.4-37.627-21.4c8.063,0,20.668-21.4,37.627-21.4s29.565,21.4,37.628,21.4M671.325,6.253c16.807,0,29.564,21.4,37.627,21.4-8.063,0-20.82,21.4-37.627,21.4s-29.565-21.4-37.628-21.4c8.063,0,20.821-21.4,37.628-21.4M661.059,51.628c-8.063,0-20.668,21.4-37.627,21.4s-29.565-21.4-37.628-21.4c8.063,0,20.668-21.4,37.628-21.4s29.564,21.4,37.627,21.4M575.423,6.253c16.807,0,29.565,21.4,37.628,21.4-8.063,0-20.821,21.4-37.628,21.4s-29.564-21.4-37.627-21.4c8.063,0,20.82-21.4,37.627-21.4M565.157,51.628c-8.063,0-20.668,21.4-37.627,21.4s-29.564-21.4-37.628-21.4c8.064,0,20.669-21.4,37.628-21.4s29.564,21.4,37.627,21.4M479.521,6.253c16.807,0,29.565,21.4,37.628,21.4-8.063,0-20.821,21.4-37.628,21.4s-29.564-21.4-37.627-21.4c8.063,0,20.82-21.4,37.627-21.4M469.256,51.628c-8.063,0-20.669,21.4-37.628,21.4s-29.564-21.4-37.627-21.4c8.063,0,20.668-21.4,37.627-21.4s29.565,21.4,37.628,21.4m-85.129-45.3V6.264c15.93.232,29.347,21.389,37.366,21.389-8.063,0-21.582,21.4-37.627,21.4v.064c-16.979-.218-29.345-21.39-37.366-21.39,8.063,0,20.513-21.4,37.627-21.4M373.217,51.7c-8.063,0-20.668,21.4-37.628,21.4s-29.564-21.4-37.627-21.4c8.063,0,20.668-21.4,37.627-21.4s29.565,21.4,37.628,21.4M287.58,6.327c16.807,0,29.564,21.4,37.627,21.4-8.063,0-20.82,21.4-37.627,21.4s-29.565-21.4-37.628-21.4c8.063,0,20.821-21.4,37.628-21.4M277.315,51.7c-8.063,0-20.668,21.4-37.627,21.4s-29.565-21.4-37.628-21.4c8.063,0,20.668-21.4,37.628-21.4s29.564,21.4,37.627,21.4M191.678,6.327c16.808,0,29.564,21.4,37.627,21.4-8.063,0-20.82,21.4-37.627,21.4s-29.565-21.4-37.628-21.4c8.063,0,20.821-21.4,37.628-21.4M181.413,51.7c-8.063,0-20.668,21.4-37.627,21.4S114.22,51.7,106.157,51.7c8.063,0,20.668-21.4,37.628-21.4s29.564,21.4,37.627,21.4M95.776,6.327c16.808,0,29.565,21.4,37.628,21.4-8.063,0-20.821,21.4-37.628,21.4s-29.564-21.4-37.627-21.4c8.063,0,20.82-21.4,37.627-21.4M10.256,51.7c8.063,0,20.668-21.4,37.627-21.4S77.447,51.7,85.51,51.7c-8.063,0-20.668,21.4-37.627,21.4S18.319,51.7,10.256,51.7m0,47.152c8.063,0,20.668-21.4,37.627-21.4s29.564,21.4,37.627,21.4c-8.063,0-20.668,21.4-37.627,21.4s-29.564-21.4-37.627-21.4m0,48.555c8.063,0,20.668-21.4,37.627-21.4s29.564,21.4,37.627,21.4c-8.063,0-20.668,21.4-37.627,21.4s-29.564-21.4-37.627-21.4m0,47.346c8.063,0,20.668-21.4,37.627-21.4s29.564,21.4,37.627,21.4c-8.063,0-20.668,21.4-37.627,21.4s-29.564-21.4-37.627-21.4m0,48.361c8.063,0,20.668-21.4,37.627-21.4s29.564,21.4,37.627,21.4c-8.063,0-20.668,21.4-37.627,21.4s-29.564-21.4-37.627-21.4m0,47.541c8.063,0,20.668-21.4,37.627-21.4s29.564,21.4,37.627,21.4c-8.063,0-20.668,21.4-37.627,21.4s-29.564-21.4-37.627-21.4m37.627,26.767c16.959,0,29.564,21.4,37.627,21.4-8.063,0-20.668,21.4-37.627,21.4s-29.564-21.4-37.627-21.4c8.063,0,20.668-21.4,37.627-21.4" transform="translate(0 0)" fill="#a0ffef"/>
  </g>
</svg>
