<svg id="epoukaz_logo" xmlns="http://www.w3.org/2000/svg" xmlns:xlink="http://www.w3.org/1999/xlink" width="260" height="29.023" viewBox="0 0 260 29.023">
  <defs>
    <clipPath id="clip-path">
      <rect id="Rectangle_10" data-name="Rectangle 10" width="260" height="29.023"/>
    </clipPath>
  </defs>
  <g id="Group_899" data-name="Group 899" clip-path="url(#clip-path)">
    <path id="Path_44" data-name="Path 44" d="M16.467,8.861A9.005,9.005,0,0,0,11.7,7.667a11.817,11.817,0,0,0-4.773.939,11.125,11.125,0,0,0-3.7,2.582A11.809,11.809,0,0,0,.841,14.943,11.937,11.937,0,0,0,0,19.4a9.84,9.84,0,0,0,1.154,4.733A8.941,8.941,0,0,0,4.4,27.578a9.151,9.151,0,0,0,4.909,1.291,13.155,13.155,0,0,0,4.342-.645,9.38,9.38,0,0,0,3.208-1.878,14.2,14.2,0,0,0,2.464-2.954L15.45,21.358A6.781,6.781,0,0,1,14.1,23a5.022,5.022,0,0,1-1.818,1,8.541,8.541,0,0,1-2.543.332A5.338,5.338,0,0,1,7.392,23.8a4.339,4.339,0,0,1-1.76-1.525,4.162,4.162,0,0,1-.665-2.367c0-.151.015-.284.018-.431h15a12.918,12.918,0,0,0,.371-1.622,11.127,11.127,0,0,0,.137-1.78,8.5,8.5,0,0,0-1.037-4.107,8.155,8.155,0,0,0-2.992-3.11M5.6,15.842A6.19,6.19,0,0,1,8.37,12.6a6.223,6.223,0,0,1,2.856-.743,5.445,5.445,0,0,1,2.308.469,3.874,3.874,0,0,1,1.623,1.369,3.757,3.757,0,0,1,.606,2.151Z" transform="translate(0 0.155)"/>
    <path id="Path_45" data-name="Path 45" d="M41.28,1.4A9.3,9.3,0,0,0,36.86.383H27.473L22.5,28.39h5.241L29.584,18.1h4.969a13.334,13.334,0,0,0,5.633-1.134,8.889,8.889,0,0,0,3.853-3.286A9.465,9.465,0,0,0,45.427,8.44,7.641,7.641,0,0,0,41.28,1.4M39.5,11.218a3.94,3.94,0,0,1-1.76,1.408,6.445,6.445,0,0,1-2.523.469h-4.74l1.376-7.706h4.733a3.487,3.487,0,0,1,2.639.959,3.438,3.438,0,0,1,.919,2.483,4.117,4.117,0,0,1-.645,2.386" transform="translate(0.456 0.007)"/>
    <path id="Path_46" data-name="Path 46" d="M62.788,8.9A9.676,9.676,0,0,0,57.82,7.668a12.518,12.518,0,0,0-4.89.919,11.124,11.124,0,0,0-3.755,2.543A11.322,11.322,0,0,0,46.77,14.9a12.671,12.671,0,0,0-.841,4.656,9.7,9.7,0,0,0,1.154,4.732,8.568,8.568,0,0,0,3.266,3.345,9.693,9.693,0,0,0,4.968,1.231,12.752,12.752,0,0,0,4.889-.9,10.873,10.873,0,0,0,3.756-2.523,11.259,11.259,0,0,0,2.406-3.793,12.837,12.837,0,0,0,.841-4.674,9.716,9.716,0,0,0-1.154-4.734A8.556,8.556,0,0,0,62.788,8.9M61.556,20.146a6.783,6.783,0,0,1-1.329,2.112,5.918,5.918,0,0,1-1.956,1.389,5.822,5.822,0,0,1-2.367.489,4.852,4.852,0,0,1-2.6-.664,4.328,4.328,0,0,1-1.644-1.839,5.956,5.956,0,0,1-.566-2.621,6.681,6.681,0,0,1,.841-3.384A6.482,6.482,0,0,1,54.163,13.3a5.726,5.726,0,0,1,3.071-.86,4.846,4.846,0,0,1,2.6.665,4.346,4.346,0,0,1,1.643,1.819,5.824,5.824,0,0,1,.567,2.6,6.949,6.949,0,0,1-.489,2.621" transform="translate(0.931 0.155)"/>
    <path id="Path_47" data-name="Path 47" d="M83.74,18.451A9.414,9.414,0,0,1,82.7,21.444a5.482,5.482,0,0,1-1.839,1.974,4.906,4.906,0,0,1-2.679.705,3.926,3.926,0,0,1-1.741-.391,2.307,2.307,0,0,1-1.154-1.35,5.369,5.369,0,0,1-.078-2.64L77.247,8.28H72.123L69.971,20.367a9.033,9.033,0,0,0,.2,4.734,5.346,5.346,0,0,0,2.268,2.815,7,7,0,0,0,3.677.939,8.85,8.85,0,0,0,2.64-.371,6.917,6.917,0,0,0,3.735-2.757H82.8l-.431,2.5h4.772L90.663,8.28H85.54Z" transform="translate(1.414 0.168)"/>
    <path id="Path_48" data-name="Path 48" d="M114,8.753l.079-.313h-6.611l-8.416,7.319L101.758.383H96.634L91.705,28.389h5.124l1.113-6.321,2.893-2.4,4.131,8.719h5.828l.04-.313-5.878-11.823Z" transform="translate(1.859 0.007)"/>
    <path id="Path_49" data-name="Path 49" d="M128.19,8.606a11.12,11.12,0,0,0-4.675-.939,12.827,12.827,0,0,0-4.968.958,9.752,9.752,0,0,0-3.872,2.875l3.4,2.5a5.731,5.731,0,0,1,2.113-1.623,6.466,6.466,0,0,1,2.7-.567,5.34,5.34,0,0,1,2.131.43,3.317,3.317,0,0,1,1.526,1.253,2.664,2.664,0,0,1,.254,2.072l-.2.861a9.565,9.565,0,0,0-1.565-.528,15.318,15.318,0,0,0-1.8-.333,15.576,15.576,0,0,0-1.917-.116,12.1,12.1,0,0,0-4.889.879,6.435,6.435,0,0,0-2.992,2.5,7.134,7.134,0,0,0-1,3.813,5.888,5.888,0,0,0,.86,3.13,6.472,6.472,0,0,0,5.593,3.089,8.236,8.236,0,0,0,2.465-.332,5.836,5.836,0,0,0,1.839-.94,7.291,7.291,0,0,0,1.369-1.389h.312l-.352,2.034h5.046l2.112-11.734a7.858,7.858,0,0,0-.45-5.008,6.222,6.222,0,0,0-3.051-2.895M125.061,22.53a5.267,5.267,0,0,1-1.839,1.721,5.136,5.136,0,0,1-2.562.626,3.286,3.286,0,0,1-2.152-.705,2.344,2.344,0,0,1-.86-1.916,2.77,2.77,0,0,1,1-2.288,4.572,4.572,0,0,1,2.914-.8,11.234,11.234,0,0,1,1.721.117,10.5,10.5,0,0,1,1.389.313,9.772,9.772,0,0,1,1.311.508,5.907,5.907,0,0,1-.919,2.425" transform="translate(2.28 0.155)"/>
    <path id="Path_50" data-name="Path 50" d="M136.123,12.622h9.935L133.815,24.044l-.744,4.185h16.782l.783-4.341H140.23l12.282-11.422.744-4.186H136.867Z" transform="translate(2.698 0.168)"/>
    <path id="Path_51" data-name="Path 51" d="M170.22,8.938a8.724,8.724,0,0,0-4.752-1.271,12.109,12.109,0,0,0-4.754.9,10.442,10.442,0,0,0-3.637,2.523,11.643,11.643,0,0,0-2.327,3.736,12.4,12.4,0,0,0-.821,4.537,10.144,10.144,0,0,0,1.135,4.811,8.836,8.836,0,0,0,3.149,3.422,8.639,8.639,0,0,0,4.713,1.271,12.117,12.117,0,0,0,4.754-.9,10.524,10.524,0,0,0,3.637-2.5,11.359,11.359,0,0,0,2.327-3.735,12.556,12.556,0,0,0,.822-4.558,10.3,10.3,0,0,0-1.115-4.811,8.707,8.707,0,0,0-3.129-3.423m.333,11.7a8.194,8.194,0,0,1-1.584,2.719,7.328,7.328,0,0,1-5.652,2.5,5.7,5.7,0,0,1-3.188-.879,5.909,5.909,0,0,1-2.093-2.386,7.637,7.637,0,0,1-.743-3.422,9.162,9.162,0,0,1,.977-4.225,8.03,8.03,0,0,1,2.739-3.089,7.154,7.154,0,0,1,4.067-1.174,5.715,5.715,0,0,1,3.188.879,5.922,5.922,0,0,1,2.093,2.386,7.647,7.647,0,0,1,.743,3.423,9.719,9.719,0,0,1-.547,3.266" transform="translate(3.121 0.155)"/>
    <path id="Path_52" data-name="Path 52" d="M193.045,8.645a7.078,7.078,0,0,0-3.853-.978A7.811,7.811,0,0,0,185.084,8.7a8.656,8.656,0,0,0-2.737,2.522h-.157l.509-2.934h-3.129l-3.52,19.949h3.325l1.995-11.226a8.247,8.247,0,0,1,1.271-3.227,7.474,7.474,0,0,1,2.347-2.269,5.757,5.757,0,0,1,3.031-.841,5.173,5.173,0,0,1,2.543.567,3.168,3.168,0,0,1,1.447,1.7,5.109,5.109,0,0,1,.118,2.776L189.9,28.242h3.325l2.151-12.2a9.264,9.264,0,0,0-.156-4.537,5.2,5.2,0,0,0-2.17-2.856" transform="translate(3.57 0.155)"/>
    <path id="Path_53" data-name="Path 53" d="M197.479,28.39h3.285L205.694.383h-3.286Z" transform="translate(4.004 0.007)"/>
    <path id="Path_54" data-name="Path 54" d="M205.568,28.229h3.286l3.52-19.949H209.05Z" transform="translate(4.168 0.168)"/>
    <path id="Path_55" data-name="Path 55" d="M213.451.685a2.432,2.432,0,0,0-3.383,0,2.276,2.276,0,0,0-.7,1.7,2.293,2.293,0,0,0,.7,1.681,2.382,2.382,0,0,0,3.383,0,2.327,2.327,0,0,0,.685-1.681,2.31,2.31,0,0,0-.685-1.7" transform="translate(4.245 0)"/>
    <path id="Path_56" data-name="Path 56" d="M230.616,8.645a7.078,7.078,0,0,0-3.853-.978A7.811,7.811,0,0,0,222.655,8.7a8.656,8.656,0,0,0-2.737,2.522h-.157l.509-2.934H217.14l-3.52,19.949h3.325l1.995-11.226a8.245,8.245,0,0,1,1.271-3.227,7.474,7.474,0,0,1,2.347-2.269,5.757,5.757,0,0,1,3.031-.841,5.173,5.173,0,0,1,2.543.567,3.168,3.168,0,0,1,1.447,1.7,5.109,5.109,0,0,1,.118,2.776l-2.23,12.518h3.325l2.151-12.2a9.265,9.265,0,0,0-.156-4.537,5.2,5.2,0,0,0-2.17-2.856" transform="translate(4.331 0.155)"/>
    <path id="Path_57" data-name="Path 57" d="M254.263,11.911a7.694,7.694,0,0,0-2.815-3.071,8.3,8.3,0,0,0-4.519-1.173,10.624,10.624,0,0,0-8.234,3.7,12.509,12.509,0,0,0-2.269,3.873,12.818,12.818,0,0,0-.8,4.478,9.786,9.786,0,0,0,1.074,4.577,8.465,8.465,0,0,0,3.071,3.324,8.8,8.8,0,0,0,4.772,1.252,11.715,11.715,0,0,0,3.834-.606,9.742,9.742,0,0,0,3.149-1.779,10.619,10.619,0,0,0,2.366-2.9l-2.543-1.447a9.009,9.009,0,0,1-1.642,1.975,6.626,6.626,0,0,1-2.171,1.291,8.254,8.254,0,0,1-2.836.45,5.866,5.866,0,0,1-2.758-.685,5.42,5.42,0,0,1-2.953-5.026c0-.429.02-.845.055-1.252H254.87a5.743,5.743,0,0,0,.274-1.329q.076-.784.078-1.487a9.109,9.109,0,0,0-.959-4.166M251.9,16.155H239.61c.1-.292.2-.583.318-.86a8.029,8.029,0,0,1,2.639-3.383,6.585,6.585,0,0,1,3.971-1.232,5.7,5.7,0,0,1,2.992.743,4.845,4.845,0,0,1,1.858,1.976,5.112,5.112,0,0,1,.508,2.757" transform="translate(4.778 0.155)"/>
  </g>
</svg>
