<svg xmlns="http://www.w3.org/2000/svg" width="28.95" height="28.95" viewBox="0 0 28.95 28.95">
  <g id="Arrow_down" transform="translate(28.95) rotate(90)">
    <path id="Arrow_how_R" d="M78.475,65.809A12.666,12.666,0,1,1,65.809,78.475,12.667,12.667,0,0,1,78.475,65.809Zm0,27.141A14.475,14.475,0,1,0,64,78.475,14.474,14.474,0,0,0,78.475,92.95Zm5.162-13.836a.908.908,0,0,0,0-1.278l-4.071-4.071a.9.9,0,1,0-1.278,1.278l2.528,2.528H73.952a.9.9,0,0,0,0,1.809h6.864l-2.528,2.528a.9.9,0,0,0,1.278,1.278Z" transform="translate(-64 -64)"/>
  </g>
</svg>
