<svg id="Phone_icon" xmlns="http://www.w3.org/2000/svg" width="50" height="50" viewBox="0 0 50 50">
  <path id="Phone_icon-2" data-name="Phone_icon" d="M89,114A25,25,0,1,0,64,89,25,25,0,0,0,89,114ZM75.24,94.381l-.137-.244c-1.621-2.842-1.367-6.9,1.826-8.984a22.185,22.185,0,0,1,24.15,0c3.193,2.08,3.447,6.143,1.826,8.984l-.137.244a1.973,1.973,0,0,1-2.471.85l-4.756-1.963a2,2,0,0,1-1.221-2.031l.293-2.959a16.68,16.68,0,0,0-11.191.2l.273,2.773a1.985,1.985,0,0,1-1.221,2.031L77.721,95.24a1.969,1.969,0,0,1-2.471-.85Z" transform="translate(-64 -64)"/>
</svg>
