<svg xmlns="http://www.w3.org/2000/svg" xmlns:xlink="http://www.w3.org/1999/xlink" width="78" height="78" viewBox="0 0 78 78">
  <defs>
    <filter id="Path_1483" x="0" y="0" width="78" height="78" filterUnits="userSpaceOnUse">
      <feOffset dy="3" input="SourceAlpha"/>
      <feGaussianBlur stdDeviation="3" result="blur"/>
      <feFlood flood-opacity="0.161"/>
      <feComposite operator="in" in2="blur"/>
      <feComposite in="SourceGraphic"/>
    </filter>
  </defs>
  <g id="Menu_mobile" transform="translate(9 6)">
    <g transform="matrix(1, 0, 0, 1, -9, -6)" filter="url(#Path_1483)">
      <path id="Path_1483-2" data-name="Path 1483" d="M30,0A30,30,0,1,1,0,30,30,30,0,0,1,30,0Z" transform="translate(9 6)" fill="#fff"/>
    </g>
    <path id="bars-sort-regular-full" d="M96,129.6a1.6,1.6,0,0,1,1.6-1.6H124.29a1.6,1.6,0,1,1,0,3.2H97.6A1.6,1.6,0,0,1,96,129.6Zm0,11.209a1.6,1.6,0,0,1,1.6-1.6H115.75a1.6,1.6,0,0,1,0,3.2H97.6A1.6,1.6,0,0,1,96,140.811Zm12.811,11.209a1.6,1.6,0,0,1-1.6,1.6H97.6a1.6,1.6,0,0,1,0-3.2h9.608A1.6,1.6,0,0,1,108.811,152.02Z" transform="translate(-80.946 -110.812)"/>
  </g>
</svg>
