<svg xmlns="http://www.w3.org/2000/svg" xmlns:xlink="http://www.w3.org/1999/xlink" width="78" height="78" viewBox="0 0 78 78">
  <defs>
    <filter id="Path_1483" x="0" y="0" width="78" height="78" filterUnits="userSpaceOnUse">
      <feOffset dy="3" input="SourceAlpha"/>
      <feGaussianBlur stdDeviation="3" result="blur"/>
      <feFlood flood-opacity="0.161"/>
      <feComposite operator="in" in2="blur"/>
      <feComposite in="SourceGraphic"/>
    </filter>
  </defs>
  <g id="Menu_closed" transform="translate(9 6)">
    <g transform="matrix(1, 0, 0, 1, -9, -6)" filter="url(#Path_1483)">
      <path id="Path_1483-2" data-name="Path 1483" d="M30,0A30,30,0,1,1,0,30,30,30,0,0,1,30,0Z" transform="translate(9 6)" fill="#fff"/>
    </g>
    <path id="Path_1485" data-name="Path 1485" d="M128.793,130.042a1.166,1.166,0,0,1,1.649-1.649l7.345,7.345,7.345-7.345a1.166,1.166,0,1,1,1.649,1.649l-7.345,7.345,7.345,7.345a1.166,1.166,0,1,1-1.649,1.649l-7.345-7.345-7.345,7.345a1.166,1.166,0,0,1-1.649-1.649l7.345-7.345Z" transform="translate(-107.787 -107.388)"/>
  </g>
</svg>
