<svg id="Ship_pro" xmlns="http://www.w3.org/2000/svg" width="24.943" height="24.947" viewBox="0 0 24.943 24.947">
  <g id="Page-1">
    <g id="Dribbble-Light-Preview">
      <g id="icons">
        <path id="ship_round-_613_" data-name="ship_round-[#613]" d="M217.72,5320.247v16.215H227.7a1.247,1.247,0,0,0,1.05-1.922l-8.73-14.966a1.246,1.246,0,0,0-2.3.673m-4.781,7.169-5.154,7.105a1.248,1.248,0,0,0,1.039,1.941h6.4v-8.353a1.247,1.247,0,0,0-2.285-.692m15.872,13.345-1.247,2.494a1.246,1.246,0,0,1-1.115.69H207.12a1.248,1.248,0,0,1-1-.5l-1.871-2.5a1.247,1.247,0,0,1,1-2H227.7a1.247,1.247,0,0,1,1.115,1.805" transform="translate(-204.002 -5318.999)" fill="#4200d8" fill-rule="evenodd"/>
      </g>
    </g>
  </g>
</svg>
