<svg id="Stars" xmlns="http://www.w3.org/2000/svg" width="123.503" height="20.35" viewBox="0 0 123.503 20.35">
  <path id="Path_784" data-name="Path 784" d="M967.883,2292l3.306,6.7,7.393,1.074-5.349,5.214,1.263,7.363-6.612-3.477-6.612,3.477,1.263-7.363-5.349-5.214,7.393-1.074Z" transform="translate(-957.184 -2292.005)" fill="#ffe346"/>
  <path id="Path_784-2" data-name="Path 784" d="M967.883,2292l3.306,6.7,7.393,1.074-5.349,5.214,1.263,7.363-6.612-3.477-6.612,3.477,1.263-7.363-5.349-5.214,7.393-1.074Z" transform="translate(-931.658 -2292.005)" fill="#ffe346"/>
  <path id="Path_784-3" data-name="Path 784" d="M967.883,2292l3.306,6.7,7.393,1.074-5.349,5.214,1.263,7.363-6.612-3.477-6.612,3.477,1.263-7.363-5.349-5.214,7.393-1.074Z" transform="translate(-906.131 -2292.005)" fill="#ffe346"/>
  <path id="Path_784-4" data-name="Path 784" d="M967.883,2292l3.306,6.7,7.393,1.074-5.349,5.214,1.263,7.363-6.612-3.477-6.612,3.477,1.263-7.363-5.349-5.214,7.393-1.074Z" transform="translate(-880.605 -2292.005)" fill="#ffe346"/>
  <path id="Path_1306" data-name="Path 1306" d="M967.883,2292l3.306,6.7,7.393,1.074-5.349,5.214,1.263,7.363-6.612-3.477-6.612,3.477,1.263-7.363-5.349-5.214,7.393-1.074Z" transform="translate(-855.079 -2292.005)" fill="#ffe346"/>
</svg>
